<svg width="20" height="20" viewBox="0 0 20 20" fill="none" xmlns="http://www.w3.org/2000/svg">
<path d="M18.3333 9.225V13.875C18.3333 16.3333 16.3333 18.3333 13.875 18.3333H6.12496C3.66663 18.3333 1.66663 16.3333 1.66663 13.875V7.86667H18.1166C18.2416 8.24167 18.3083 8.625 18.325 9.03334C18.3333 9.09167 18.3333 9.16667 18.3333 9.225Z" fill="#FF783E"/>
<path opacity="0.4" d="M18.1166 7.86666H1.66663V5.34999C1.66663 3.31666 3.31663 1.66666 5.34996 1.66666H7.29163C8.64996 1.66666 9.07496 2.10832 9.61663 2.83332L10.7833 4.38332C11.0416 4.72499 11.075 4.77499 11.5583 4.77499H13.8833C15.8583 4.76666 17.5416 6.06666 18.1166 7.86666Z" fill="#FF783E"/>
</svg>
