<svg width="119" height="119" viewBox="0 0 119 119" fill="none" xmlns="http://www.w3.org/2000/svg">
<rect width="119" height="119" rx="3.09091" fill="#EEEEEE"/>
<path d="M64.8963 47.1363C69.1015 47.1363 71.9256 50.0809 71.9256 54.4625V64.5855C71.9256 68.9671 69.1015 71.9117 64.8963 71.9117H60.773C60.2589 71.9117 59.8416 71.4944 59.8416 70.9803C59.8416 70.4661 60.2589 70.0488 60.773 70.0488H64.8963C68.0346 70.0488 70.0627 67.904 70.0627 64.5855V54.4625C70.0627 51.1428 68.0346 48.9992 64.8963 48.9992H54.1535C51.0226 48.9992 48.9994 51.1428 48.9994 54.4625V64.5855C48.9994 67.904 51.0226 70.0488 54.1535 70.0488H55.0489C55.5631 70.0488 55.9804 70.4661 55.9804 70.9803C55.9804 71.4944 55.5631 71.9117 55.0489 71.9117H54.1535C49.957 71.9117 47.1365 68.9671 47.1365 64.5855V54.4625C47.1365 50.0809 49.957 47.1363 54.1535 47.1363H64.8963ZM63.6438 58.9886C64.5019 58.9625 65.3415 59.2892 65.9401 59.9064L68.5196 62.5654C68.8773 62.9355 68.8686 63.5254 68.4985 63.8831C68.1296 64.242 67.5397 64.2308 67.182 63.8632L64.6025 61.2042C64.3691 60.9633 64.0635 60.8279 63.7195 60.8503C63.3842 60.864 63.0824 61.0155 62.8688 61.275L60.1005 64.6432C59.6124 65.2368 58.8921 65.597 58.1246 65.6305C57.3558 65.6467 56.6082 65.3685 56.0692 64.8208L54.9688 63.6981C54.8074 63.5316 54.6024 63.3851 54.3739 63.4422C54.1491 63.4435 53.9417 63.5341 53.7877 63.6956L51.8876 65.7013C51.705 65.895 51.4591 65.9919 51.212 65.9919C50.9822 65.9919 50.7512 65.9075 50.5711 65.7373C50.1985 65.3834 50.1824 64.7934 50.5363 64.4196L52.4353 62.4151C52.942 61.8786 53.6275 61.5818 54.3665 61.5793C55.0794 61.6265 55.7935 61.8687 56.3051 62.4002L57.3993 63.5155C57.5694 63.6894 57.793 63.7862 58.0426 63.7688C58.286 63.7577 58.5059 63.6484 58.6611 63.4596L61.4294 60.0915C61.9758 59.427 62.7831 59.0246 63.6438 58.9886ZM55.284 52.886C56.9979 52.886 58.3926 54.2807 58.3926 55.9958C58.3926 57.7109 56.9979 59.1056 55.284 59.1056C53.5689 59.1056 52.1742 57.7109 52.1742 55.9958C52.1742 54.2807 53.5689 52.886 55.284 52.886ZM55.284 54.7489C54.596 54.7489 54.0371 55.3078 54.0371 55.9958C54.0371 56.6838 54.596 57.2427 55.284 57.2427C55.9708 57.2427 56.5297 56.6838 56.5297 55.9958C56.5297 55.3078 55.9708 54.7489 55.284 54.7489Z" fill="#B0B0B0"/>
</svg>
