<svg width="1099" height="77" viewBox="0 0 1099 77" fill="none" xmlns="http://www.w3.org/2000/svg">
<rect x="55" y="24.9913" width="73.6" height="3.57019" rx="1.78509" fill="#FF783E"/>
<rect x="183" y="24.9913" width="73.6" height="3.57019" rx="1.78509" fill="#FF783E"/>
<rect x="314" y="24.9913" width="73.6" height="3.57019" rx="1.78509" fill="#E2E2E2"/>
<rect x="574" y="24.9913" width="73.6" height="3.57019" rx="1.78509" fill="#E2E2E2"/>
<rect x="445" y="24.9913" width="73.6" height="3.57019" rx="1.78509" fill="#E2E2E2"/>
<rect x="707" y="24.9913" width="73.6" height="3.57019" rx="1.78509" fill="#E2E2E2"/>
<rect x="839" y="24.9913" width="73.6" height="3.57019" rx="1.78509" fill="#E2E2E2"/>
<rect x="968" y="24.9913" width="73.6" height="3.57019" rx="1.78509" fill="#E2E2E2"/>
<circle cx="155.171" cy="24.1497" r="13.7144" fill="black"/>
<path d="M153.753 21.2264V19.7695H156.475V28.0029H154.849V21.2264H153.753Z" fill="white"/>
<path d="M131.557 47.6752C131.557 48.3712 131.317 48.9512 130.837 49.4152C130.365 49.8712 129.641 50.0992 128.665 50.0992H127.057V53.5912H125.965V45.2272H128.665C129.609 45.2272 130.325 45.4552 130.813 45.9112C131.309 46.3672 131.557 46.9552 131.557 47.6752ZM128.665 49.1992C129.273 49.1992 129.721 49.0672 130.009 48.8032C130.297 48.5392 130.441 48.1632 130.441 47.6752C130.441 46.6432 129.849 46.1272 128.665 46.1272H127.057V49.1992H128.665ZM136.178 46.8952C136.674 46.8952 137.122 47.0032 137.522 47.2192C137.922 47.4272 138.234 47.7432 138.458 48.1672C138.69 48.5912 138.806 49.1072 138.806 49.7152V53.5912H137.726V49.8712C137.726 49.2152 137.562 48.7152 137.234 48.3712C136.906 48.0192 136.458 47.8432 135.89 47.8432C135.314 47.8432 134.854 48.0232 134.51 48.3832C134.174 48.7432 134.006 49.2672 134.006 49.9552V53.5912H132.914V44.7112H134.006V47.9512C134.222 47.6152 134.518 47.3552 134.894 47.1712C135.278 46.9872 135.706 46.8952 136.178 46.8952ZM143.458 53.6992C142.842 53.6992 142.282 53.5592 141.778 53.2792C141.282 52.9992 140.89 52.6032 140.602 52.0912C140.322 51.5712 140.182 50.9712 140.182 50.2912C140.182 49.6192 140.326 49.0272 140.614 48.5152C140.91 47.9952 141.31 47.5992 141.814 47.3272C142.318 47.0472 142.882 46.9072 143.506 46.9072C144.13 46.9072 144.694 47.0472 145.198 47.3272C145.702 47.5992 146.098 47.9912 146.386 48.5032C146.682 49.0152 146.83 49.6112 146.83 50.2912C146.83 50.9712 146.678 51.5712 146.374 52.0912C146.078 52.6032 145.674 52.9992 145.162 53.2792C144.65 53.5592 144.082 53.6992 143.458 53.6992ZM143.458 52.7392C143.85 52.7392 144.218 52.6472 144.562 52.4632C144.906 52.2792 145.182 52.0032 145.39 51.6352C145.606 51.2672 145.714 50.8192 145.714 50.2912C145.714 49.7632 145.61 49.3152 145.402 48.9472C145.194 48.5792 144.922 48.3072 144.586 48.1312C144.25 47.9472 143.886 47.8552 143.494 47.8552C143.094 47.8552 142.726 47.9472 142.39 48.1312C142.062 48.3072 141.798 48.5792 141.598 48.9472C141.398 49.3152 141.298 49.7632 141.298 50.2912C141.298 50.8272 141.394 51.2792 141.586 51.6472C141.786 52.0152 142.05 52.2912 142.378 52.4752C142.706 52.6512 143.066 52.7392 143.458 52.7392ZM149.598 47.9152V51.7912C149.598 52.1112 149.666 52.3392 149.802 52.4752C149.938 52.6032 150.174 52.6672 150.51 52.6672H151.314V53.5912H150.33C149.722 53.5912 149.266 53.4512 148.962 53.1712C148.658 52.8912 148.506 52.4312 148.506 51.7912V47.9152H147.654V47.0152H148.506V45.3592H149.598V47.0152H151.314V47.9152H149.598ZM155.505 53.6992C154.889 53.6992 154.329 53.5592 153.825 53.2792C153.329 52.9992 152.937 52.6032 152.649 52.0912C152.369 51.5712 152.229 50.9712 152.229 50.2912C152.229 49.6192 152.373 49.0272 152.661 48.5152C152.957 47.9952 153.357 47.5992 153.861 47.3272C154.365 47.0472 154.929 46.9072 155.553 46.9072C156.177 46.9072 156.741 47.0472 157.245 47.3272C157.749 47.5992 158.145 47.9912 158.433 48.5032C158.729 49.0152 158.877 49.6112 158.877 50.2912C158.877 50.9712 158.725 51.5712 158.421 52.0912C158.125 52.6032 157.721 52.9992 157.209 53.2792C156.697 53.5592 156.129 53.6992 155.505 53.6992ZM155.505 52.7392C155.897 52.7392 156.265 52.6472 156.609 52.4632C156.953 52.2792 157.229 52.0032 157.437 51.6352C157.653 51.2672 157.761 50.8192 157.761 50.2912C157.761 49.7632 157.657 49.3152 157.449 48.9472C157.241 48.5792 156.969 48.3072 156.633 48.1312C156.297 47.9472 155.933 47.8552 155.541 47.8552C155.141 47.8552 154.773 47.9472 154.437 48.1312C154.109 48.3072 153.845 48.5792 153.645 48.9472C153.445 49.3152 153.345 49.7632 153.345 50.2912C153.345 50.8272 153.441 51.2792 153.633 51.6472C153.833 52.0152 154.097 52.2912 154.425 52.4752C154.753 52.6512 155.113 52.7392 155.505 52.7392ZM162.641 53.6992C162.137 53.6992 161.685 53.6152 161.285 53.4472C160.885 53.2712 160.569 53.0312 160.337 52.7272C160.105 52.4152 159.977 52.0592 159.953 51.6592H161.081C161.113 51.9872 161.265 52.2552 161.537 52.4632C161.817 52.6712 162.181 52.7752 162.629 52.7752C163.045 52.7752 163.373 52.6832 163.613 52.4992C163.853 52.3152 163.973 52.0832 163.973 51.8032C163.973 51.5152 163.845 51.3032 163.589 51.1672C163.333 51.0232 162.937 50.8832 162.401 50.7472C161.913 50.6192 161.513 50.4912 161.201 50.3632C160.897 50.2272 160.633 50.0312 160.409 49.7752C160.193 49.5112 160.085 49.1672 160.085 48.7432C160.085 48.4072 160.185 48.0992 160.385 47.8192C160.585 47.5392 160.869 47.3192 161.237 47.1592C161.605 46.9912 162.025 46.9072 162.497 46.9072C163.225 46.9072 163.813 47.0912 164.261 47.4592C164.709 47.8272 164.949 48.3312 164.981 48.9712H163.889C163.865 48.6272 163.725 48.3512 163.469 48.1432C163.221 47.9352 162.885 47.8312 162.461 47.8312C162.069 47.8312 161.757 47.9152 161.525 48.0832C161.293 48.2512 161.177 48.4712 161.177 48.7432C161.177 48.9592 161.245 49.1392 161.381 49.2832C161.525 49.4192 161.701 49.5312 161.909 49.6192C162.125 49.6992 162.421 49.7912 162.797 49.8952C163.269 50.0232 163.653 50.1512 163.949 50.2792C164.245 50.3992 164.497 50.5832 164.705 50.8312C164.921 51.0792 165.033 51.4032 165.041 51.8032C165.041 52.1632 164.941 52.4872 164.741 52.7752C164.541 53.0632 164.257 53.2912 163.889 53.4592C163.529 53.6192 163.113 53.6992 162.641 53.6992ZM172.457 47.9152H171.077V53.5912H169.985V47.9152H169.133V47.0152H169.985V46.5472C169.985 45.8112 170.173 45.2752 170.549 44.9392C170.933 44.5952 171.545 44.4232 172.385 44.4232V45.3352C171.905 45.3352 171.565 45.4312 171.365 45.6232C171.173 45.8072 171.077 46.1152 171.077 46.5472V47.0152H172.457V47.9152ZM176.599 53.6992C175.983 53.6992 175.423 53.5592 174.919 53.2792C174.423 52.9992 174.031 52.6032 173.743 52.0912C173.463 51.5712 173.323 50.9712 173.323 50.2912C173.323 49.6192 173.467 49.0272 173.755 48.5152C174.051 47.9952 174.451 47.5992 174.955 47.3272C175.459 47.0472 176.023 46.9072 176.647 46.9072C177.271 46.9072 177.835 47.0472 178.339 47.3272C178.843 47.5992 179.239 47.9912 179.527 48.5032C179.823 49.0152 179.971 49.6112 179.971 50.2912C179.971 50.9712 179.819 51.5712 179.515 52.0912C179.219 52.6032 178.815 52.9992 178.303 53.2792C177.791 53.5592 177.223 53.6992 176.599 53.6992ZM176.599 52.7392C176.991 52.7392 177.359 52.6472 177.703 52.4632C178.047 52.2792 178.323 52.0032 178.531 51.6352C178.747 51.2672 178.855 50.8192 178.855 50.2912C178.855 49.7632 178.751 49.3152 178.543 48.9472C178.335 48.5792 178.063 48.3072 177.727 48.1312C177.391 47.9472 177.027 47.8552 176.635 47.8552C176.235 47.8552 175.867 47.9472 175.531 48.1312C175.203 48.3072 174.939 48.5792 174.739 48.9472C174.539 49.3152 174.439 49.7632 174.439 50.2912C174.439 50.8272 174.535 51.2792 174.727 51.6472C174.927 52.0152 175.191 52.2912 175.519 52.4752C175.847 52.6512 176.207 52.7392 176.599 52.7392ZM182.498 48.0832C182.69 47.7072 182.962 47.4152 183.314 47.2072C183.674 46.9992 184.11 46.8952 184.622 46.8952V48.0232H184.334C183.11 48.0232 182.498 48.6872 182.498 50.0152V53.5912H181.406V47.0152H182.498V48.0832ZM135.584 71.6752C135.032 71.6752 134.536 71.5792 134.096 71.3872C133.664 71.1872 133.324 70.9152 133.076 70.5712C132.828 70.2192 132.7 69.8152 132.692 69.3592H133.856C133.896 69.7512 134.056 70.0832 134.336 70.3552C134.624 70.6192 135.04 70.7512 135.584 70.7512C136.104 70.7512 136.512 70.6232 136.808 70.3672C137.112 70.1032 137.264 69.7672 137.264 69.3592C137.264 69.0392 137.176 68.7792 137 68.5792C136.824 68.3792 136.604 68.2272 136.34 68.1232C136.076 68.0192 135.72 67.9072 135.272 67.7872C134.72 67.6432 134.276 67.4992 133.94 67.3552C133.612 67.2112 133.328 66.9872 133.088 66.6832C132.856 66.3712 132.74 65.9552 132.74 65.4352C132.74 64.9792 132.856 64.5752 133.088 64.2232C133.32 63.8712 133.644 63.5992 134.06 63.4072C134.484 63.2152 134.968 63.1192 135.512 63.1192C136.296 63.1192 136.936 63.3152 137.432 63.7072C137.936 64.0992 138.22 64.6192 138.284 65.2672H137.084C137.044 64.9472 136.876 64.6672 136.58 64.4272C136.284 64.1792 135.892 64.0552 135.404 64.0552C134.948 64.0552 134.576 64.1752 134.288 64.4152C134 64.6472 133.856 64.9752 133.856 65.3992C133.856 65.7032 133.94 65.9512 134.108 66.1432C134.284 66.3352 134.496 66.4832 134.744 66.5872C135 66.6832 135.356 66.7952 135.812 66.9232C136.364 67.0752 136.808 67.2272 137.144 67.3792C137.48 67.5232 137.768 67.7512 138.008 68.0632C138.248 68.3672 138.368 68.7832 138.368 69.3112C138.368 69.7192 138.26 70.1032 138.044 70.4632C137.828 70.8232 137.508 71.1152 137.084 71.3392C136.66 71.5632 136.16 71.6752 135.584 71.6752ZM145.807 65.0152V71.5912H144.715V70.6192C144.507 70.9552 144.215 71.2192 143.839 71.4112C143.471 71.5952 143.063 71.6872 142.615 71.6872C142.103 71.6872 141.643 71.5832 141.235 71.3752C140.827 71.1592 140.503 70.8392 140.263 70.4152C140.031 69.9912 139.915 69.4752 139.915 68.8672V65.0152H140.995V68.7232C140.995 69.3712 141.159 69.8712 141.487 70.2232C141.815 70.5672 142.263 70.7392 142.831 70.7392C143.415 70.7392 143.875 70.5592 144.211 70.1992C144.547 69.8392 144.715 69.3152 144.715 68.6272V65.0152H145.807ZM148.743 66.0832C148.935 65.7072 149.207 65.4152 149.559 65.2072C149.919 64.9992 150.355 64.8952 150.867 64.8952V66.0232H150.579C149.355 66.0232 148.743 66.6872 148.743 68.0152V71.5912H147.651V65.0152H148.743V66.0832ZM154.803 65.9152H153.423V71.5912H152.331V65.9152H151.479V65.0152H152.331V64.5472C152.331 63.8112 152.519 63.2752 152.895 62.9392C153.279 62.5952 153.891 62.4232 154.731 62.4232V63.3352C154.251 63.3352 153.911 63.4312 153.711 63.6232C153.519 63.8072 153.423 64.1152 153.423 64.5472V65.0152H154.803V65.9152ZM155.668 68.2792C155.668 67.6072 155.804 67.0192 156.076 66.5152C156.348 66.0032 156.72 65.6072 157.192 65.3272C157.672 65.0472 158.204 64.9072 158.788 64.9072C159.364 64.9072 159.864 65.0312 160.288 65.2792C160.712 65.5272 161.028 65.8392 161.236 66.2152V65.0152H162.34V71.5912H161.236V70.3672C161.02 70.7512 160.696 71.0712 160.264 71.3272C159.84 71.5752 159.344 71.6992 158.776 71.6992C158.192 71.6992 157.664 71.5552 157.192 71.2672C156.72 70.9792 156.348 70.5752 156.076 70.0552C155.804 69.5352 155.668 68.9432 155.668 68.2792ZM161.236 68.2912C161.236 67.7952 161.136 67.3632 160.936 66.9952C160.736 66.6272 160.464 66.3472 160.12 66.1552C159.784 65.9552 159.412 65.8552 159.004 65.8552C158.596 65.8552 158.224 65.9512 157.888 66.1432C157.552 66.3352 157.284 66.6152 157.084 66.9832C156.884 67.3512 156.784 67.7832 156.784 68.2792C156.784 68.7832 156.884 69.2232 157.084 69.5992C157.284 69.9672 157.552 70.2512 157.888 70.4512C158.224 70.6432 158.596 70.7392 159.004 70.7392C159.412 70.7392 159.784 70.6432 160.12 70.4512C160.464 70.2512 160.736 69.9672 160.936 69.5992C161.136 69.2232 161.236 68.7872 161.236 68.2912ZM163.778 68.2912C163.778 67.6112 163.914 67.0192 164.186 66.5152C164.458 66.0032 164.834 65.6072 165.314 65.3272C165.802 65.0472 166.358 64.9072 166.982 64.9072C167.79 64.9072 168.454 65.1032 168.974 65.4952C169.502 65.8872 169.85 66.4312 170.018 67.1272H168.842C168.73 66.7272 168.51 66.4112 168.182 66.1792C167.862 65.9472 167.462 65.8312 166.982 65.8312C166.358 65.8312 165.854 66.0472 165.47 66.4792C165.086 66.9032 164.894 67.5072 164.894 68.2912C164.894 69.0832 165.086 69.6952 165.47 70.1272C165.854 70.5592 166.358 70.7752 166.982 70.7752C167.462 70.7752 167.862 70.6632 168.182 70.4392C168.502 70.2152 168.722 69.8952 168.842 69.4792H170.018C169.842 70.1512 169.49 70.6912 168.962 71.0992C168.434 71.4992 167.774 71.6992 166.982 71.6992C166.358 71.6992 165.802 71.5592 165.314 71.2792C164.834 70.9992 164.458 70.6032 164.186 70.0912C163.914 69.5792 163.778 68.9792 163.778 68.2912ZM177.475 68.0512C177.475 68.2592 177.463 68.4792 177.439 68.7112H172.183C172.223 69.3592 172.443 69.8672 172.843 70.2352C173.251 70.5952 173.743 70.7752 174.319 70.7752C174.791 70.7752 175.183 70.6672 175.495 70.4512C175.815 70.2272 176.039 69.9312 176.167 69.5632H177.343C177.167 70.1952 176.815 70.7112 176.287 71.1112C175.759 71.5032 175.103 71.6992 174.319 71.6992C173.695 71.6992 173.135 71.5592 172.639 71.2792C172.151 70.9992 171.767 70.6032 171.487 70.0912C171.207 69.5712 171.067 68.9712 171.067 68.2912C171.067 67.6112 171.203 67.0152 171.475 66.5032C171.747 65.9912 172.127 65.5992 172.615 65.3272C173.111 65.0472 173.679 64.9072 174.319 64.9072C174.943 64.9072 175.495 65.0432 175.975 65.3152C176.455 65.5872 176.823 65.9632 177.079 66.4432C177.343 66.9152 177.475 67.4512 177.475 68.0512ZM176.347 67.8232C176.347 67.4072 176.255 67.0512 176.071 66.7552C175.887 66.4512 175.635 66.2232 175.315 66.0712C175.003 65.9112 174.655 65.8312 174.271 65.8312C173.719 65.8312 173.247 66.0072 172.855 66.3592C172.471 66.7112 172.251 67.1992 172.195 67.8232H176.347Z" fill="#4B4B4B"/>
<g clip-path="url(#clip0_1_1213)">
<path d="M26.3923 45.4742C36.6382 45.4742 44.9441 37.0497 44.9441 26.6574C44.9441 16.2651 36.6382 7.84025 26.3923 7.84025C16.1464 7.84025 7.84018 16.2651 7.84018 26.6574C7.85173 37.0448 16.1508 45.4625 26.3923 45.4742V45.4742ZM26.3923 9.72217C35.6137 9.72217 43.089 17.3043 43.089 26.6574C43.089 36.0105 35.6137 43.5926 26.3923 43.5926C17.1709 43.5926 9.69559 36.0105 9.69559 26.6574C9.70612 17.3088 17.1753 9.73285 26.3923 9.72217Z" fill="#E2E2E2"/>
<path d="M31.8138 26.6573H20.9706M20.9706 26.6573L26.3922 32.0789M20.9706 26.6573L26.3922 21.2357" stroke="#E2E2E2" stroke-width="1.56808" stroke-linecap="round" stroke-linejoin="round"/>
</g>
<circle cx="416.468" cy="23.8909" r="13.7565" fill="#E2E2E2"/>
<path d="M413.178 21.9193C413.216 21.164 413.48 20.5825 413.971 20.1746C414.47 19.7592 415.123 19.5515 415.931 19.5515C416.483 19.5515 416.955 19.6497 417.347 19.8461C417.74 20.0349 418.035 20.2955 418.231 20.6278C418.435 20.9526 418.537 21.3226 418.537 21.738C418.537 22.2138 418.412 22.6179 418.163 22.9502C417.921 23.275 417.631 23.494 417.291 23.6073V23.6526C417.729 23.7886 418.069 24.0302 418.31 24.3777C418.56 24.7251 418.684 25.1707 418.684 25.7145C418.684 26.1676 418.578 26.5717 418.367 26.9267C418.163 27.2816 417.857 27.5611 417.449 27.765C417.049 27.9614 416.566 28.0595 415.999 28.0595C415.146 28.0595 414.451 27.8443 413.915 27.4138C413.378 26.9833 413.095 26.3489 413.065 25.5105H414.606C414.621 25.8806 414.745 26.1789 414.98 26.4055C415.221 26.6246 415.55 26.7341 415.965 26.7341C416.35 26.7341 416.645 26.6283 416.849 26.4169C417.06 26.1978 417.166 25.9184 417.166 25.5785C417.166 25.1254 417.023 24.8006 416.736 24.6042C416.449 24.4079 416.003 24.3097 415.399 24.3097H415.07V23.0069H415.399C416.471 23.0069 417.007 22.6481 417.007 21.9306C417.007 21.6058 416.909 21.3528 416.713 21.1716C416.524 20.9903 416.248 20.8997 415.886 20.8997C415.531 20.8997 415.255 20.9979 415.059 21.1942C414.87 21.383 414.761 21.6247 414.73 21.9193H413.178Z" fill="#4B4B4B"/>
<path d="M387.603 45.2272V46.1152H383.967V48.9352H386.919V49.8232H383.967V53.5912H382.875V45.2272H387.603ZM388.514 50.2792C388.514 49.6072 388.65 49.0192 388.922 48.5152C389.194 48.0032 389.566 47.6072 390.038 47.3272C390.518 47.0472 391.05 46.9072 391.634 46.9072C392.21 46.9072 392.71 47.0312 393.134 47.2792C393.558 47.5272 393.874 47.8392 394.082 48.2152V47.0152H395.186V53.5912H394.082V52.3672C393.866 52.7512 393.542 53.0712 393.11 53.3272C392.686 53.5752 392.19 53.6992 391.622 53.6992C391.038 53.6992 390.51 53.5552 390.038 53.2672C389.566 52.9792 389.194 52.5752 388.922 52.0552C388.65 51.5352 388.514 50.9432 388.514 50.2792ZM394.082 50.2912C394.082 49.7952 393.982 49.3632 393.782 48.9952C393.582 48.6272 393.31 48.3472 392.966 48.1552C392.63 47.9552 392.258 47.8552 391.85 47.8552C391.442 47.8552 391.07 47.9512 390.734 48.1432C390.398 48.3352 390.13 48.6152 389.93 48.9832C389.73 49.3512 389.63 49.7832 389.63 50.2792C389.63 50.7832 389.73 51.2232 389.93 51.5992C390.13 51.9672 390.398 52.2512 390.734 52.4512C391.07 52.6432 391.442 52.7392 391.85 52.7392C392.258 52.7392 392.63 52.6432 392.966 52.4512C393.31 52.2512 393.582 51.9672 393.782 51.5992C393.982 51.2232 394.082 50.7872 394.082 50.2912ZM396.623 50.2792C396.623 49.6072 396.759 49.0192 397.031 48.5152C397.303 48.0032 397.675 47.6072 398.147 47.3272C398.627 47.0472 399.163 46.9072 399.755 46.9072C400.267 46.9072 400.743 47.0272 401.183 47.2672C401.623 47.4992 401.959 47.8072 402.191 48.1912V44.7112H403.295V53.5912H402.191V52.3552C401.975 52.7472 401.655 53.0712 401.231 53.3272C400.807 53.5752 400.311 53.6992 399.743 53.6992C399.159 53.6992 398.627 53.5552 398.147 53.2672C397.675 52.9792 397.303 52.5752 397.031 52.0552C396.759 51.5352 396.623 50.9432 396.623 50.2792ZM402.191 50.2912C402.191 49.7952 402.091 49.3632 401.891 48.9952C401.691 48.6272 401.419 48.3472 401.075 48.1552C400.739 47.9552 400.367 47.8552 399.959 47.8552C399.551 47.8552 399.179 47.9512 398.843 48.1432C398.507 48.3352 398.239 48.6152 398.039 48.9832C397.839 49.3512 397.739 49.7832 397.739 50.2792C397.739 50.7832 397.839 51.2232 398.039 51.5992C398.239 51.9672 398.507 52.2512 398.843 52.4512C399.179 52.6432 399.551 52.7392 399.959 52.7392C400.367 52.7392 400.739 52.6432 401.075 52.4512C401.419 52.2512 401.691 51.9672 401.891 51.5992C402.091 51.2232 402.191 50.7872 402.191 50.2912ZM405.705 45.9472C405.497 45.9472 405.321 45.8752 405.177 45.7312C405.033 45.5872 404.961 45.4112 404.961 45.2032C404.961 44.9952 405.033 44.8192 405.177 44.6752C405.321 44.5312 405.497 44.4592 405.705 44.4592C405.905 44.4592 406.073 44.5312 406.209 44.6752C406.353 44.8192 406.425 44.9952 406.425 45.2032C406.425 45.4112 406.353 45.5872 406.209 45.7312C406.073 45.8752 405.905 45.9472 405.705 45.9472ZM406.233 47.0152V53.5912H405.141V47.0152H406.233ZM411.298 46.8952C412.098 46.8952 412.746 47.1392 413.242 47.6272C413.738 48.1072 413.986 48.8032 413.986 49.7152V53.5912H412.906V49.8712C412.906 49.2152 412.742 48.7152 412.414 48.3712C412.086 48.0192 411.638 47.8432 411.07 47.8432C410.494 47.8432 410.034 48.0232 409.69 48.3832C409.354 48.7432 409.186 49.2672 409.186 49.9552V53.5912H408.094V47.0152H409.186V47.9512C409.402 47.6152 409.694 47.3552 410.062 47.1712C410.438 46.9872 410.85 46.8952 411.298 46.8952ZM418.482 46.9072C419.05 46.9072 419.546 47.0312 419.97 47.2792C420.402 47.5272 420.722 47.8392 420.93 48.2152V47.0152H422.034V53.7352C422.034 54.3352 421.906 54.8672 421.65 55.3312C421.394 55.8032 421.026 56.1712 420.546 56.4352C420.074 56.6992 419.522 56.8312 418.89 56.8312C418.026 56.8312 417.306 56.6272 416.73 56.2192C416.154 55.8112 415.814 55.2552 415.71 54.5512H416.79C416.91 54.9512 417.158 55.2712 417.534 55.5112C417.91 55.7592 418.362 55.8832 418.89 55.8832C419.49 55.8832 419.978 55.6952 420.354 55.3192C420.738 54.9432 420.93 54.4152 420.93 53.7352V52.3552C420.714 52.7392 420.394 53.0592 419.97 53.3152C419.546 53.5712 419.05 53.6992 418.482 53.6992C417.898 53.6992 417.366 53.5552 416.886 53.2672C416.414 52.9792 416.042 52.5752 415.77 52.0552C415.498 51.5352 415.362 50.9432 415.362 50.2792C415.362 49.6072 415.498 49.0192 415.77 48.5152C416.042 48.0032 416.414 47.6072 416.886 47.3272C417.366 47.0472 417.898 46.9072 418.482 46.9072ZM420.93 50.2912C420.93 49.7952 420.83 49.3632 420.63 48.9952C420.43 48.6272 420.158 48.3472 419.814 48.1552C419.478 47.9552 419.106 47.8552 418.698 47.8552C418.29 47.8552 417.918 47.9512 417.582 48.1432C417.246 48.3352 416.978 48.6152 416.778 48.9832C416.578 49.3512 416.478 49.7832 416.478 50.2792C416.478 50.7832 416.578 51.2232 416.778 51.5992C416.978 51.9672 417.246 52.2512 417.582 52.4512C417.918 52.6432 418.29 52.7392 418.698 52.7392C419.106 52.7392 419.478 52.6432 419.814 52.4512C420.158 52.2512 420.43 51.9672 420.63 51.5992C420.83 51.2232 420.93 50.7872 420.93 50.2912ZM426.67 50.2792C426.67 49.6072 426.806 49.0192 427.078 48.5152C427.35 48.0032 427.722 47.6072 428.194 47.3272C428.674 47.0472 429.206 46.9072 429.79 46.9072C430.366 46.9072 430.866 47.0312 431.29 47.2792C431.714 47.5272 432.03 47.8392 432.238 48.2152V47.0152H433.342V53.5912H432.238V52.3672C432.022 52.7512 431.698 53.0712 431.266 53.3272C430.842 53.5752 430.346 53.6992 429.778 53.6992C429.194 53.6992 428.666 53.5552 428.194 53.2672C427.722 52.9792 427.35 52.5752 427.078 52.0552C426.806 51.5352 426.67 50.9432 426.67 50.2792ZM432.238 50.2912C432.238 49.7952 432.138 49.3632 431.938 48.9952C431.738 48.6272 431.466 48.3472 431.122 48.1552C430.786 47.9552 430.414 47.8552 430.006 47.8552C429.598 47.8552 429.226 47.9512 428.89 48.1432C428.554 48.3352 428.286 48.6152 428.086 48.9832C427.886 49.3512 427.786 49.7832 427.786 50.2792C427.786 50.7832 427.886 51.2232 428.086 51.5992C428.286 51.9672 428.554 52.2512 428.89 52.4512C429.226 52.6432 429.598 52.7392 430.006 52.7392C430.414 52.7392 430.786 52.6432 431.122 52.4512C431.466 52.2512 431.738 51.9672 431.938 51.5992C432.138 51.2232 432.238 50.7872 432.238 50.2912ZM438.392 46.8952C439.192 46.8952 439.84 47.1392 440.336 47.6272C440.832 48.1072 441.08 48.8032 441.08 49.7152V53.5912H440V49.8712C440 49.2152 439.836 48.7152 439.508 48.3712C439.18 48.0192 438.732 47.8432 438.164 47.8432C437.588 47.8432 437.128 48.0232 436.784 48.3832C436.448 48.7432 436.28 49.2672 436.28 49.9552V53.5912H435.188V47.0152H436.28V47.9512C436.496 47.6152 436.788 47.3552 437.156 47.1712C437.532 46.9872 437.944 46.8952 438.392 46.8952ZM442.455 50.2792C442.455 49.6072 442.591 49.0192 442.863 48.5152C443.135 48.0032 443.507 47.6072 443.979 47.3272C444.459 47.0472 444.995 46.9072 445.587 46.9072C446.099 46.9072 446.575 47.0272 447.015 47.2672C447.455 47.4992 447.791 47.8072 448.023 48.1912V44.7112H449.127V53.5912H448.023V52.3552C447.807 52.7472 447.487 53.0712 447.063 53.3272C446.639 53.5752 446.143 53.6992 445.575 53.6992C444.991 53.6992 444.459 53.5552 443.979 53.2672C443.507 52.9792 443.135 52.5752 442.863 52.0552C442.591 51.5352 442.455 50.9432 442.455 50.2792ZM448.023 50.2912C448.023 49.7952 447.923 49.3632 447.723 48.9952C447.523 48.6272 447.251 48.3472 446.907 48.1552C446.571 47.9552 446.199 47.8552 445.791 47.8552C445.383 47.8552 445.011 47.9512 444.675 48.1432C444.339 48.3352 444.071 48.6152 443.871 48.9832C443.671 49.3512 443.571 49.7832 443.571 50.2792C443.571 50.7832 443.671 51.2232 443.871 51.5992C444.071 51.9672 444.339 52.2512 444.675 52.4512C445.011 52.6432 445.383 52.7392 445.791 52.7392C446.199 52.7392 446.571 52.6432 446.907 52.4512C447.251 52.2512 447.523 51.9672 447.723 51.5992C447.923 51.2232 448.023 50.7872 448.023 50.2912ZM377.422 68.2792C377.422 67.6072 377.558 67.0192 377.83 66.5152C378.102 66.0032 378.474 65.6072 378.946 65.3272C379.426 65.0472 379.962 64.9072 380.554 64.9072C381.066 64.9072 381.542 65.0272 381.982 65.2672C382.422 65.4992 382.758 65.8072 382.99 66.1912V62.7112H384.094V71.5912H382.99V70.3552C382.774 70.7472 382.454 71.0712 382.03 71.3272C381.606 71.5752 381.11 71.6992 380.542 71.6992C379.958 71.6992 379.426 71.5552 378.946 71.2672C378.474 70.9792 378.102 70.5752 377.83 70.0552C377.558 69.5352 377.422 68.9432 377.422 68.2792ZM382.99 68.2912C382.99 67.7952 382.89 67.3632 382.69 66.9952C382.49 66.6272 382.218 66.3472 381.874 66.1552C381.538 65.9552 381.166 65.8552 380.758 65.8552C380.35 65.8552 379.978 65.9512 379.642 66.1432C379.306 66.3352 379.038 66.6152 378.838 66.9832C378.638 67.3512 378.538 67.7832 378.538 68.2792C378.538 68.7832 378.638 69.2232 378.838 69.5992C379.038 69.9672 379.306 70.2512 379.642 70.4512C379.978 70.6432 380.35 70.7392 380.758 70.7392C381.166 70.7392 381.538 70.6432 381.874 70.4512C382.218 70.2512 382.49 69.9672 382.69 69.5992C382.89 69.2232 382.99 68.7872 382.99 68.2912ZM386.504 63.9472C386.296 63.9472 386.12 63.8752 385.976 63.7312C385.832 63.5872 385.76 63.4112 385.76 63.2032C385.76 62.9952 385.832 62.8192 385.976 62.6752C386.12 62.5312 386.296 62.4592 386.504 62.4592C386.704 62.4592 386.872 62.5312 387.008 62.6752C387.152 62.8192 387.224 62.9952 387.224 63.2032C387.224 63.4112 387.152 63.5872 387.008 63.7312C386.872 63.8752 386.704 63.9472 386.504 63.9472ZM387.032 65.0152V71.5912H385.94V65.0152H387.032ZM391.221 71.6992C390.717 71.6992 390.265 71.6152 389.865 71.4472C389.465 71.2712 389.149 71.0312 388.917 70.7272C388.685 70.4152 388.557 70.0592 388.533 69.6592H389.661C389.693 69.9872 389.845 70.2552 390.117 70.4632C390.397 70.6712 390.761 70.7752 391.209 70.7752C391.625 70.7752 391.953 70.6832 392.193 70.4992C392.433 70.3152 392.553 70.0832 392.553 69.8032C392.553 69.5152 392.425 69.3032 392.169 69.1672C391.913 69.0232 391.517 68.8832 390.981 68.7472C390.493 68.6192 390.093 68.4912 389.781 68.3632C389.477 68.2272 389.213 68.0312 388.989 67.7752C388.773 67.5112 388.665 67.1672 388.665 66.7432C388.665 66.4072 388.765 66.0992 388.965 65.8192C389.165 65.5392 389.449 65.3192 389.817 65.1592C390.185 64.9912 390.605 64.9072 391.077 64.9072C391.805 64.9072 392.393 65.0912 392.841 65.4592C393.289 65.8272 393.529 66.3312 393.561 66.9712H392.469C392.445 66.6272 392.305 66.3512 392.049 66.1432C391.801 65.9352 391.465 65.8312 391.041 65.8312C390.649 65.8312 390.337 65.9152 390.105 66.0832C389.873 66.2512 389.757 66.4712 389.757 66.7432C389.757 66.9592 389.825 67.1392 389.961 67.2832C390.105 67.4192 390.281 67.5312 390.489 67.6192C390.705 67.6992 391.001 67.7912 391.377 67.8952C391.849 68.0232 392.233 68.1512 392.529 68.2792C392.825 68.3992 393.077 68.5832 393.285 68.8312C393.501 69.0792 393.613 69.4032 393.621 69.8032C393.621 70.1632 393.521 70.4872 393.321 70.7752C393.121 71.0632 392.837 71.2912 392.469 71.4592C392.109 71.6192 391.693 71.6992 391.221 71.6992ZM394.754 68.2912C394.754 67.6112 394.89 67.0192 395.162 66.5152C395.434 66.0032 395.81 65.6072 396.29 65.3272C396.778 65.0472 397.334 64.9072 397.958 64.9072C398.766 64.9072 399.43 65.1032 399.95 65.4952C400.478 65.8872 400.826 66.4312 400.994 67.1272H399.818C399.706 66.7272 399.486 66.4112 399.158 66.1792C398.838 65.9472 398.438 65.8312 397.958 65.8312C397.334 65.8312 396.83 66.0472 396.446 66.4792C396.062 66.9032 395.87 67.5072 395.87 68.2912C395.87 69.0832 396.062 69.6952 396.446 70.1272C396.83 70.5592 397.334 70.7752 397.958 70.7752C398.438 70.7752 398.838 70.6632 399.158 70.4392C399.478 70.2152 399.698 69.8952 399.818 69.4792H400.994C400.818 70.1512 400.466 70.6912 399.938 71.0992C399.41 71.4992 398.75 71.6992 397.958 71.6992C397.334 71.6992 396.778 71.5592 396.29 71.2792C395.81 70.9992 395.434 70.6032 395.162 70.0912C394.89 69.5792 394.754 68.9792 394.754 68.2912ZM405.319 71.6992C404.703 71.6992 404.143 71.5592 403.639 71.2792C403.143 70.9992 402.751 70.6032 402.463 70.0912C402.183 69.5712 402.043 68.9712 402.043 68.2912C402.043 67.6192 402.187 67.0272 402.475 66.5152C402.771 65.9952 403.171 65.5992 403.675 65.3272C404.179 65.0472 404.743 64.9072 405.367 64.9072C405.991 64.9072 406.555 65.0472 407.059 65.3272C407.563 65.5992 407.959 65.9912 408.247 66.5032C408.543 67.0152 408.691 67.6112 408.691 68.2912C408.691 68.9712 408.539 69.5712 408.235 70.0912C407.939 70.6032 407.535 70.9992 407.023 71.2792C406.511 71.5592 405.943 71.6992 405.319 71.6992ZM405.319 70.7392C405.711 70.7392 406.079 70.6472 406.423 70.4632C406.767 70.2792 407.043 70.0032 407.251 69.6352C407.467 69.2672 407.575 68.8192 407.575 68.2912C407.575 67.7632 407.471 67.3152 407.263 66.9472C407.055 66.5792 406.783 66.3072 406.447 66.1312C406.111 65.9472 405.747 65.8552 405.355 65.8552C404.955 65.8552 404.587 65.9472 404.251 66.1312C403.923 66.3072 403.659 66.5792 403.459 66.9472C403.259 67.3152 403.159 67.7632 403.159 68.2912C403.159 68.8272 403.255 69.2792 403.447 69.6472C403.647 70.0152 403.911 70.2912 404.239 70.4752C404.567 70.6512 404.927 70.7392 405.319 70.7392ZM411.219 62.7112V71.5912H410.127V62.7112H411.219ZM415.948 71.6992C415.332 71.6992 414.772 71.5592 414.268 71.2792C413.772 70.9992 413.38 70.6032 413.092 70.0912C412.812 69.5712 412.672 68.9712 412.672 68.2912C412.672 67.6192 412.816 67.0272 413.104 66.5152C413.4 65.9952 413.8 65.5992 414.304 65.3272C414.808 65.0472 415.372 64.9072 415.996 64.9072C416.62 64.9072 417.184 65.0472 417.688 65.3272C418.192 65.5992 418.588 65.9912 418.876 66.5032C419.172 67.0152 419.32 67.6112 419.32 68.2912C419.32 68.9712 419.168 69.5712 418.864 70.0912C418.568 70.6032 418.164 70.9992 417.652 71.2792C417.14 71.5592 416.572 71.6992 415.948 71.6992ZM415.948 70.7392C416.34 70.7392 416.708 70.6472 417.052 70.4632C417.396 70.2792 417.672 70.0032 417.88 69.6352C418.096 69.2672 418.204 68.8192 418.204 68.2912C418.204 67.7632 418.1 67.3152 417.892 66.9472C417.684 66.5792 417.412 66.3072 417.076 66.1312C416.74 65.9472 416.376 65.8552 415.984 65.8552C415.584 65.8552 415.216 65.9472 414.88 66.1312C414.552 66.3072 414.288 66.5792 414.088 66.9472C413.888 67.3152 413.788 67.7632 413.788 68.2912C413.788 68.8272 413.884 69.2792 414.076 69.6472C414.276 70.0152 414.54 70.2912 414.868 70.4752C415.196 70.6512 415.556 70.7392 415.948 70.7392ZM421.848 66.0832C422.04 65.7072 422.312 65.4152 422.664 65.2072C423.024 64.9992 423.46 64.8952 423.972 64.8952V66.0232H423.684C422.46 66.0232 421.848 66.6872 421.848 68.0152V71.5912H420.756V65.0152H421.848V66.0832ZM424.825 68.2792C424.825 67.6072 424.961 67.0192 425.233 66.5152C425.505 66.0032 425.877 65.6072 426.349 65.3272C426.829 65.0472 427.361 64.9072 427.945 64.9072C428.521 64.9072 429.021 65.0312 429.445 65.2792C429.869 65.5272 430.185 65.8392 430.393 66.2152V65.0152H431.497V71.5912H430.393V70.3672C430.177 70.7512 429.853 71.0712 429.421 71.3272C428.997 71.5752 428.501 71.6992 427.933 71.6992C427.349 71.6992 426.821 71.5552 426.349 71.2672C425.877 70.9792 425.505 70.5752 425.233 70.0552C424.961 69.5352 424.825 68.9432 424.825 68.2792ZM430.393 68.2912C430.393 67.7952 430.293 67.3632 430.093 66.9952C429.893 66.6272 429.621 66.3472 429.277 66.1552C428.941 65.9552 428.569 65.8552 428.161 65.8552C427.753 65.8552 427.381 65.9512 427.045 66.1432C426.709 66.3352 426.441 66.6152 426.241 66.9832C426.041 67.3512 425.941 67.7832 425.941 68.2792C425.941 68.7832 426.041 69.2232 426.241 69.5992C426.441 69.9672 426.709 70.2512 427.045 70.4512C427.381 70.6432 427.753 70.7392 428.161 70.7392C428.569 70.7392 428.941 70.6432 429.277 70.4512C429.621 70.2512 429.893 69.9672 430.093 69.5992C430.293 69.2232 430.393 68.7872 430.393 68.2912ZM434.674 65.9152V69.7912C434.674 70.1112 434.742 70.3392 434.878 70.4752C435.014 70.6032 435.25 70.6672 435.586 70.6672H436.39V71.5912H435.406C434.798 71.5912 434.342 71.4512 434.038 71.1712C433.734 70.8912 433.582 70.4312 433.582 69.7912V65.9152H432.73V65.0152H433.582V63.3592H434.674V65.0152H436.39V65.9152H434.674ZM438.277 63.9472C438.069 63.9472 437.893 63.8752 437.749 63.7312C437.605 63.5872 437.533 63.4112 437.533 63.2032C437.533 62.9952 437.605 62.8192 437.749 62.6752C437.893 62.5312 438.069 62.4592 438.277 62.4592C438.477 62.4592 438.645 62.5312 438.781 62.6752C438.925 62.8192 438.997 62.9952 438.997 63.2032C438.997 63.4112 438.925 63.5872 438.781 63.7312C438.645 63.8752 438.477 63.9472 438.277 63.9472ZM438.805 65.0152V71.5912H437.713V65.0152H438.805ZM443.534 71.6992C442.918 71.6992 442.358 71.5592 441.854 71.2792C441.358 70.9992 440.966 70.6032 440.678 70.0912C440.398 69.5712 440.258 68.9712 440.258 68.2912C440.258 67.6192 440.402 67.0272 440.69 66.5152C440.986 65.9952 441.386 65.5992 441.89 65.3272C442.394 65.0472 442.958 64.9072 443.582 64.9072C444.206 64.9072 444.77 65.0472 445.274 65.3272C445.778 65.5992 446.174 65.9912 446.462 66.5032C446.758 67.0152 446.906 67.6112 446.906 68.2912C446.906 68.9712 446.754 69.5712 446.45 70.0912C446.154 70.6032 445.75 70.9992 445.238 71.2792C444.726 71.5592 444.158 71.6992 443.534 71.6992ZM443.534 70.7392C443.926 70.7392 444.294 70.6472 444.638 70.4632C444.982 70.2792 445.258 70.0032 445.466 69.6352C445.682 69.2672 445.79 68.8192 445.79 68.2912C445.79 67.7632 445.686 67.3152 445.478 66.9472C445.27 66.5792 444.998 66.3072 444.662 66.1312C444.326 65.9472 443.962 65.8552 443.57 65.8552C443.17 65.8552 442.802 65.9472 442.466 66.1312C442.138 66.3072 441.874 66.5792 441.674 66.9472C441.474 67.3152 441.374 67.7632 441.374 68.2912C441.374 68.8272 441.47 69.2792 441.662 69.6472C441.862 70.0152 442.126 70.2912 442.454 70.4752C442.782 70.6512 443.142 70.7392 443.534 70.7392ZM451.546 64.8952C452.346 64.8952 452.994 65.1392 453.49 65.6272C453.986 66.1072 454.234 66.8032 454.234 67.7152V71.5912H453.154V67.8712C453.154 67.2152 452.99 66.7152 452.662 66.3712C452.334 66.0192 451.886 65.8432 451.318 65.8432C450.742 65.8432 450.282 66.0232 449.938 66.3832C449.602 66.7432 449.434 67.2672 449.434 67.9552V71.5912H448.342V65.0152H449.434V65.9512C449.65 65.6152 449.942 65.3552 450.31 65.1712C450.686 64.9872 451.098 64.8952 451.546 64.8952Z" fill="#4B4B4B"/>
<circle cx="676.467" cy="23.8909" r="13.7565" fill="#E2E2E2"/>
<path d="M678.844 21.115H675.173V23.0522C675.332 22.8559 675.558 22.6973 675.853 22.5764C676.147 22.448 676.461 22.3838 676.793 22.3838C677.397 22.3838 677.892 22.516 678.277 22.7804C678.662 23.0447 678.942 23.3846 679.115 23.8C679.289 24.2078 679.376 24.6458 679.376 25.1141C679.376 25.9827 679.127 26.6813 678.628 27.21C678.137 27.7386 677.435 28.003 676.521 28.003C675.66 28.003 674.973 27.7877 674.459 27.3572C673.946 26.9267 673.655 26.3641 673.587 25.6692H675.128C675.196 25.9713 675.347 26.213 675.581 26.3943C675.823 26.5755 676.128 26.6662 676.498 26.6662C676.944 26.6662 677.28 26.5264 677.507 26.247C677.733 25.9676 677.847 25.5975 677.847 25.1368C677.847 24.6685 677.73 24.3135 677.495 24.0718C677.269 23.8226 676.933 23.698 676.487 23.698C676.17 23.698 675.906 23.7773 675.694 23.9359C675.483 24.0945 675.332 24.306 675.241 24.5703H673.723V19.7216H678.844V21.115Z" fill="#4B4B4B"/>
<path d="M670.032 49.0153L667.98 55.5913H666.852L665.268 50.3713L663.684 55.5913H662.556L660.492 49.0153H661.608L663.12 54.5353L664.752 49.0153H665.868L667.464 54.5473L668.952 49.0153H670.032ZM673.983 55.6993C673.367 55.6993 672.807 55.5593 672.303 55.2793C671.807 54.9993 671.415 54.6033 671.127 54.0913C670.847 53.5713 670.707 52.9713 670.707 52.2913C670.707 51.6193 670.851 51.0273 671.139 50.5153C671.435 49.9953 671.835 49.5993 672.339 49.3273C672.843 49.0473 673.407 48.9073 674.031 48.9073C674.655 48.9073 675.219 49.0473 675.723 49.3273C676.227 49.5993 676.623 49.9913 676.911 50.5033C677.207 51.0153 677.355 51.6113 677.355 52.2913C677.355 52.9713 677.203 53.5713 676.899 54.0913C676.603 54.6033 676.199 54.9993 675.687 55.2793C675.175 55.5593 674.607 55.6993 673.983 55.6993ZM673.983 54.7393C674.375 54.7393 674.743 54.6473 675.087 54.4633C675.431 54.2793 675.707 54.0033 675.915 53.6353C676.131 53.2673 676.239 52.8193 676.239 52.2913C676.239 51.7633 676.135 51.3153 675.927 50.9473C675.719 50.5793 675.447 50.3073 675.111 50.1313C674.775 49.9473 674.411 49.8553 674.019 49.8553C673.619 49.8553 673.251 49.9473 672.915 50.1313C672.587 50.3073 672.323 50.5793 672.123 50.9473C671.923 51.3153 671.823 51.7633 671.823 52.2913C671.823 52.8273 671.919 53.2793 672.111 53.6473C672.311 54.0153 672.575 54.2913 672.903 54.4753C673.231 54.6513 673.591 54.7393 673.983 54.7393ZM681.659 55.6993C681.043 55.6993 680.483 55.5593 679.979 55.2793C679.483 54.9993 679.091 54.6033 678.803 54.0913C678.523 53.5713 678.383 52.9713 678.383 52.2913C678.383 51.6193 678.527 51.0273 678.815 50.5153C679.111 49.9953 679.511 49.5993 680.015 49.3273C680.519 49.0473 681.083 48.9073 681.707 48.9073C682.331 48.9073 682.895 49.0473 683.399 49.3273C683.903 49.5993 684.299 49.9913 684.587 50.5033C684.883 51.0153 685.031 51.6113 685.031 52.2913C685.031 52.9713 684.879 53.5713 684.575 54.0913C684.279 54.6033 683.875 54.9993 683.363 55.2793C682.851 55.5593 682.283 55.6993 681.659 55.6993ZM681.659 54.7393C682.051 54.7393 682.419 54.6473 682.763 54.4633C683.107 54.2793 683.383 54.0033 683.591 53.6353C683.807 53.2673 683.915 52.8193 683.915 52.2913C683.915 51.7633 683.811 51.3153 683.603 50.9473C683.395 50.5793 683.123 50.3073 682.787 50.1313C682.451 49.9473 682.087 49.8553 681.695 49.8553C681.295 49.8553 680.927 49.9473 680.591 50.1313C680.263 50.3073 679.999 50.5793 679.799 50.9473C679.599 51.3153 679.499 51.7633 679.499 52.2913C679.499 52.8273 679.595 53.2793 679.787 53.6473C679.987 54.0153 680.251 54.2913 680.579 54.4753C680.907 54.6513 681.267 54.7393 681.659 54.7393ZM686.059 52.2793C686.059 51.6073 686.195 51.0193 686.467 50.5153C686.739 50.0033 687.111 49.6073 687.583 49.3273C688.063 49.0473 688.599 48.9073 689.191 48.9073C689.703 48.9073 690.179 49.0273 690.619 49.2673C691.059 49.4993 691.395 49.8073 691.627 50.1913V46.7113H692.731V55.5913H691.627V54.3553C691.411 54.7473 691.091 55.0713 690.667 55.3273C690.243 55.5753 689.747 55.6993 689.179 55.6993C688.595 55.6993 688.063 55.5553 687.583 55.2673C687.111 54.9793 686.739 54.5753 686.467 54.0553C686.195 53.5353 686.059 52.9433 686.059 52.2793ZM691.627 52.2913C691.627 51.7953 691.527 51.3633 691.327 50.9953C691.127 50.6273 690.855 50.3473 690.511 50.1553C690.175 49.9553 689.803 49.8553 689.395 49.8553C688.987 49.8553 688.615 49.9513 688.279 50.1433C687.943 50.3353 687.675 50.6153 687.475 50.9833C687.275 51.3513 687.175 51.7833 687.175 52.2793C687.175 52.7833 687.275 53.2233 687.475 53.5993C687.675 53.9673 687.943 54.2513 688.279 54.4513C688.615 54.6433 688.987 54.7393 689.395 54.7393C689.803 54.7393 690.175 54.6433 690.511 54.4513C690.855 54.2513 691.127 53.9673 691.327 53.5993C691.527 53.2233 691.627 52.7873 691.627 52.2913Z" fill="#4B4B4B"/>
<circle cx="939.467" cy="23.8909" r="13.7565" fill="#E2E2E2"/>
<path d="M942.591 20.9451L939.578 28.003H937.969L941.005 21.1263H937.131V19.7669H942.591V20.9451Z" fill="#4B4B4B"/>
<path d="M909.936 51.4033C909.936 50.5873 910.12 49.8553 910.488 49.2073C910.856 48.5513 911.356 48.0393 911.988 47.6713C912.628 47.3033 913.336 47.1193 914.112 47.1193C915.024 47.1193 915.82 47.3393 916.5 47.7793C917.18 48.2193 917.676 48.8433 917.988 49.6513H916.68C916.448 49.1473 916.112 48.7593 915.672 48.4873C915.24 48.2153 914.72 48.0793 914.112 48.0793C913.528 48.0793 913.004 48.2153 912.54 48.4873C912.076 48.7593 911.712 49.1473 911.448 49.6513C911.184 50.1473 911.052 50.7313 911.052 51.4033C911.052 52.0673 911.184 52.6513 911.448 53.1553C911.712 53.6513 912.076 54.0353 912.54 54.3073C913.004 54.5793 913.528 54.7153 914.112 54.7153C914.72 54.7153 915.24 54.5833 915.672 54.3193C916.112 54.0473 916.448 53.6593 916.68 53.1553H917.988C917.676 53.9553 917.18 54.5753 916.5 55.0153C915.82 55.4473 915.024 55.6633 914.112 55.6633C913.336 55.6633 912.628 55.4833 911.988 55.1233C911.356 54.7553 910.856 54.2473 910.488 53.5993C910.12 52.9513 909.936 52.2193 909.936 51.4033ZM922.481 55.6993C921.865 55.6993 921.305 55.5593 920.801 55.2793C920.305 54.9993 919.913 54.6033 919.625 54.0913C919.345 53.5713 919.205 52.9713 919.205 52.2913C919.205 51.6193 919.349 51.0273 919.637 50.5153C919.933 49.9953 920.333 49.5993 920.837 49.3273C921.341 49.0473 921.905 48.9073 922.529 48.9073C923.153 48.9073 923.717 49.0473 924.221 49.3273C924.725 49.5993 925.121 49.9913 925.409 50.5033C925.705 51.0153 925.853 51.6113 925.853 52.2913C925.853 52.9713 925.701 53.5713 925.397 54.0913C925.101 54.6033 924.697 54.9993 924.185 55.2793C923.673 55.5593 923.105 55.6993 922.481 55.6993ZM922.481 54.7393C922.873 54.7393 923.241 54.6473 923.585 54.4633C923.929 54.2793 924.205 54.0033 924.413 53.6353C924.629 53.2673 924.737 52.8193 924.737 52.2913C924.737 51.7633 924.633 51.3153 924.425 50.9473C924.217 50.5793 923.945 50.3073 923.609 50.1313C923.273 49.9473 922.909 49.8553 922.517 49.8553C922.117 49.8553 921.749 49.9473 921.413 50.1313C921.085 50.3073 920.821 50.5793 920.621 50.9473C920.421 51.3153 920.321 51.7633 920.321 52.2913C920.321 52.8273 920.417 53.2793 920.609 53.6473C920.809 54.0153 921.073 54.2913 921.401 54.4753C921.729 54.6513 922.089 54.7393 922.481 54.7393ZM935.197 48.8953C935.709 48.8953 936.165 49.0033 936.565 49.2193C936.965 49.4273 937.281 49.7433 937.513 50.1673C937.745 50.5913 937.861 51.1073 937.861 51.7153V55.5913H936.781V51.8713C936.781 51.2153 936.617 50.7153 936.289 50.3713C935.969 50.0193 935.533 49.8433 934.981 49.8433C934.413 49.8433 933.961 50.0273 933.625 50.3953C933.289 50.7553 933.121 51.2793 933.121 51.9673V55.5913H932.041V51.8713C932.041 51.2153 931.877 50.7153 931.549 50.3713C931.229 50.0193 930.793 49.8433 930.241 49.8433C929.673 49.8433 929.221 50.0273 928.885 50.3953C928.549 50.7553 928.381 51.2793 928.381 51.9673V55.5913H927.289V49.0153H928.381V49.9633C928.597 49.6193 928.885 49.3553 929.245 49.1713C929.613 48.9873 930.017 48.8953 930.457 48.8953C931.009 48.8953 931.497 49.0193 931.921 49.2673C932.345 49.5153 932.661 49.8793 932.869 50.3593C933.053 49.8953 933.357 49.5353 933.781 49.2793C934.205 49.0233 934.677 48.8953 935.197 48.8953ZM947.561 48.8953C948.073 48.8953 948.529 49.0033 948.929 49.2193C949.329 49.4273 949.645 49.7433 949.877 50.1673C950.109 50.5913 950.225 51.1073 950.225 51.7153V55.5913H949.145V51.8713C949.145 51.2153 948.981 50.7153 948.653 50.3713C948.333 50.0193 947.897 49.8433 947.345 49.8433C946.777 49.8433 946.325 50.0273 945.989 50.3953C945.653 50.7553 945.485 51.2793 945.485 51.9673V55.5913H944.405V51.8713C944.405 51.2153 944.241 50.7153 943.913 50.3713C943.593 50.0193 943.157 49.8433 942.605 49.8433C942.037 49.8433 941.585 50.0273 941.249 50.3953C940.913 50.7553 940.745 51.2793 940.745 51.9673V55.5913H939.653V49.0153H940.745V49.9633C940.961 49.6193 941.249 49.3553 941.609 49.1713C941.977 48.9873 942.381 48.8953 942.821 48.8953C943.373 48.8953 943.861 49.0193 944.285 49.2673C944.709 49.5153 945.025 49.8793 945.233 50.3593C945.417 49.8953 945.721 49.5353 946.145 49.2793C946.569 49.0233 947.041 48.8953 947.561 48.8953ZM958.016 52.0513C958.016 52.2593 958.004 52.4793 957.98 52.7113H952.724C952.764 53.3593 952.984 53.8673 953.384 54.2353C953.792 54.5953 954.284 54.7753 954.86 54.7753C955.332 54.7753 955.724 54.6673 956.036 54.4513C956.356 54.2273 956.58 53.9313 956.708 53.5633H957.884C957.708 54.1953 957.356 54.7113 956.828 55.1113C956.3 55.5033 955.644 55.6993 954.86 55.6993C954.236 55.6993 953.676 55.5593 953.18 55.2793C952.692 54.9993 952.308 54.6033 952.028 54.0913C951.748 53.5713 951.608 52.9713 951.608 52.2913C951.608 51.6113 951.744 51.0153 952.016 50.5033C952.288 49.9913 952.668 49.5993 953.156 49.3273C953.652 49.0473 954.22 48.9073 954.86 48.9073C955.484 48.9073 956.036 49.0433 956.516 49.3153C956.996 49.5873 957.364 49.9633 957.62 50.4433C957.884 50.9153 958.016 51.4513 958.016 52.0513ZM956.888 51.8233C956.888 51.4073 956.796 51.0513 956.612 50.7553C956.428 50.4513 956.176 50.2233 955.856 50.0713C955.544 49.9113 955.196 49.8313 954.812 49.8313C954.26 49.8313 953.788 50.0073 953.396 50.3593C953.012 50.7113 952.792 51.1993 952.736 51.8233H956.888ZM962.661 48.8953C963.461 48.8953 964.109 49.1393 964.605 49.6273C965.101 50.1073 965.349 50.8033 965.349 51.7153V55.5913H964.269V51.8713C964.269 51.2153 964.105 50.7153 963.777 50.3713C963.449 50.0193 963.001 49.8433 962.433 49.8433C961.857 49.8433 961.397 50.0233 961.053 50.3833C960.717 50.7433 960.549 51.2673 960.549 51.9553V55.5913H959.457V49.0153H960.549V49.9513C960.765 49.6153 961.057 49.3553 961.425 49.1713C961.801 48.9873 962.213 48.8953 962.661 48.8953ZM968.465 49.9153V53.7913C968.465 54.1113 968.533 54.3393 968.669 54.4753C968.805 54.6033 969.041 54.6673 969.377 54.6673H970.181V55.5913H969.197C968.589 55.5913 968.133 55.4513 967.829 55.1713C967.525 54.8913 967.373 54.4313 967.373 53.7913V49.9153H966.521V49.0153H967.373V47.3593H968.465V49.0153H970.181V49.9153H968.465Z" fill="#4B4B4B"/>
<circle cx="810.467" cy="23.8909" r="13.7565" fill="#E2E2E2"/>
<path d="M811.597 21.8061C811.521 21.4889 811.389 21.251 811.2 21.0923C811.019 20.9337 810.755 20.8544 810.407 20.8544C809.886 20.8544 809.501 21.0659 809.252 21.4889C809.01 21.9043 808.885 22.584 808.878 23.5281C809.059 23.226 809.324 22.9918 809.671 22.8257C810.018 22.652 810.396 22.5651 810.804 22.5651C811.295 22.5651 811.729 22.6708 812.107 22.8823C812.484 23.0938 812.779 23.4034 812.99 23.8113C813.202 24.2116 813.308 24.6949 813.308 25.2614C813.308 25.7976 813.198 26.2772 812.979 26.7002C812.767 27.1155 812.454 27.4403 812.039 27.6744C811.623 27.9086 811.129 28.0256 810.555 28.0256C809.769 28.0256 809.15 27.8519 808.697 27.5045C808.251 27.1571 807.938 26.6737 807.756 26.0544C807.583 25.4275 807.496 24.6572 807.496 23.7433C807.496 22.3612 807.734 21.3189 808.21 20.6165C808.685 19.9066 809.437 19.5516 810.464 19.5516C811.257 19.5516 811.873 19.7669 812.311 20.1974C812.749 20.6279 813.002 21.1641 813.07 21.8061H811.597ZM810.441 23.8679C810.041 23.8679 809.705 23.985 809.433 24.2191C809.161 24.4533 809.025 24.7931 809.025 25.2387C809.025 25.6843 809.15 26.0355 809.399 26.2923C809.656 26.5491 810.015 26.6775 810.475 26.6775C810.883 26.6775 811.204 26.5529 811.438 26.3036C811.68 26.0544 811.801 25.7183 811.801 25.2954C811.801 24.8573 811.684 24.5099 811.45 24.2531C811.223 23.9963 810.887 23.8679 810.441 23.8679Z" fill="#4B4B4B"/>
<path d="M772.465 55.5913L770.473 52.1713H769.153V55.5913H768.061V47.2273H770.761C771.393 47.2273 771.925 47.3353 772.357 47.5513C772.797 47.7673 773.125 48.0593 773.341 48.4273C773.557 48.7953 773.665 49.2153 773.665 49.6873C773.665 50.2633 773.497 50.7713 773.161 51.2113C772.833 51.6513 772.337 51.9433 771.673 52.0873L773.773 55.5913H772.465ZM769.153 51.2953H770.761C771.353 51.2953 771.797 51.1513 772.093 50.8633C772.389 50.5673 772.537 50.1753 772.537 49.6873C772.537 49.1913 772.389 48.8073 772.093 48.5353C771.805 48.2633 771.361 48.1273 770.761 48.1273H769.153V51.2953ZM778.23 55.6993C777.614 55.6993 777.054 55.5593 776.55 55.2793C776.054 54.9993 775.662 54.6033 775.374 54.0913C775.094 53.5713 774.954 52.9713 774.954 52.2913C774.954 51.6193 775.098 51.0273 775.386 50.5153C775.682 49.9953 776.082 49.5993 776.586 49.3273C777.09 49.0473 777.654 48.9073 778.278 48.9073C778.902 48.9073 779.466 49.0473 779.97 49.3273C780.474 49.5993 780.87 49.9913 781.158 50.5033C781.454 51.0153 781.602 51.6113 781.602 52.2913C781.602 52.9713 781.45 53.5713 781.146 54.0913C780.85 54.6033 780.446 54.9993 779.934 55.2793C779.422 55.5593 778.854 55.6993 778.23 55.6993ZM778.23 54.7393C778.622 54.7393 778.99 54.6473 779.334 54.4633C779.678 54.2793 779.954 54.0033 780.162 53.6353C780.378 53.2673 780.486 52.8193 780.486 52.2913C780.486 51.7633 780.382 51.3153 780.174 50.9473C779.966 50.5793 779.694 50.3073 779.358 50.1313C779.022 49.9473 778.658 49.8553 778.266 49.8553C777.866 49.8553 777.498 49.9473 777.162 50.1313C776.834 50.3073 776.57 50.5793 776.37 50.9473C776.17 51.3153 776.07 51.7633 776.07 52.2913C776.07 52.8273 776.166 53.2793 776.358 53.6473C776.558 54.0153 776.822 54.2913 777.15 54.4753C777.478 54.6513 777.838 54.7393 778.23 54.7393ZM784.369 49.9153V53.7913C784.369 54.1113 784.437 54.3393 784.573 54.4753C784.709 54.6033 784.945 54.6673 785.281 54.6673H786.085V55.5913H785.101C784.493 55.5913 784.037 55.4513 783.733 55.1713C783.429 54.8913 783.277 54.4313 783.277 53.7913V49.9153H782.425V49.0153H783.277V47.3593H784.369V49.0153H786.085V49.9153H784.369ZM790.2 52.2793C790.2 51.6073 790.336 51.0193 790.608 50.5153C790.88 50.0033 791.252 49.6073 791.724 49.3273C792.204 49.0473 792.736 48.9073 793.32 48.9073C793.896 48.9073 794.396 49.0313 794.82 49.2793C795.244 49.5273 795.56 49.8393 795.768 50.2153V49.0153H796.872V55.5913H795.768V54.3673C795.552 54.7513 795.228 55.0713 794.796 55.3273C794.372 55.5753 793.876 55.6993 793.308 55.6993C792.724 55.6993 792.196 55.5553 791.724 55.2673C791.252 54.9793 790.88 54.5753 790.608 54.0553C790.336 53.5353 790.2 52.9433 790.2 52.2793ZM795.768 52.2913C795.768 51.7953 795.668 51.3633 795.468 50.9953C795.268 50.6273 794.996 50.3473 794.652 50.1553C794.316 49.9553 793.944 49.8553 793.536 49.8553C793.128 49.8553 792.756 49.9513 792.42 50.1433C792.084 50.3353 791.816 50.6153 791.616 50.9833C791.416 51.3513 791.316 51.7833 791.316 52.2793C791.316 52.7833 791.416 53.2233 791.616 53.5993C791.816 53.9673 792.084 54.2513 792.42 54.4513C792.756 54.6433 793.128 54.7393 793.536 54.7393C793.944 54.7393 794.316 54.6433 794.652 54.4513C794.996 54.2513 795.268 53.9673 795.468 53.5993C795.668 53.2233 795.768 52.7873 795.768 52.2913ZM801.921 48.8953C802.721 48.8953 803.369 49.1393 803.865 49.6273C804.361 50.1073 804.609 50.8033 804.609 51.7153V55.5913H803.529V51.8713C803.529 51.2153 803.365 50.7153 803.037 50.3713C802.709 50.0193 802.261 49.8433 801.693 49.8433C801.117 49.8433 800.657 50.0233 800.313 50.3833C799.977 50.7433 799.809 51.2673 799.809 51.9553V55.5913H798.717V49.0153H799.809V49.9513C800.025 49.6153 800.317 49.3553 800.685 49.1713C801.061 48.9873 801.473 48.8953 801.921 48.8953ZM805.985 52.2793C805.985 51.6073 806.121 51.0193 806.393 50.5153C806.665 50.0033 807.037 49.6073 807.509 49.3273C807.989 49.0473 808.525 48.9073 809.117 48.9073C809.629 48.9073 810.105 49.0273 810.545 49.2673C810.985 49.4993 811.321 49.8073 811.553 50.1913V46.7113H812.657V55.5913H811.553V54.3553C811.337 54.7473 811.017 55.0713 810.593 55.3273C810.169 55.5753 809.673 55.6993 809.105 55.6993C808.521 55.6993 807.989 55.5553 807.509 55.2673C807.037 54.9793 806.665 54.5753 806.393 54.0553C806.121 53.5353 805.985 52.9433 805.985 52.2793ZM811.553 52.2913C811.553 51.7953 811.453 51.3633 811.253 50.9953C811.053 50.6273 810.781 50.3473 810.437 50.1553C810.101 49.9553 809.729 49.8553 809.321 49.8553C808.913 49.8553 808.541 49.9513 808.205 50.1433C807.869 50.3353 807.601 50.6153 807.401 50.9833C807.201 51.3513 807.101 51.7833 807.101 52.2793C807.101 52.7833 807.201 53.2233 807.401 53.5993C807.601 53.9673 807.869 54.2513 808.205 54.4513C808.541 54.6433 808.913 54.7393 809.321 54.7393C809.729 54.7393 810.101 54.6433 810.437 54.4513C810.781 54.2513 811.053 53.9673 811.253 53.5993C811.453 53.2233 811.553 52.7873 811.553 52.2913ZM820.305 47.2273C821.217 47.2273 822.005 47.3993 822.669 47.7433C823.341 48.0793 823.853 48.5633 824.205 49.1953C824.565 49.8273 824.745 50.5713 824.745 51.4273C824.745 52.2833 824.565 53.0273 824.205 53.6593C823.853 54.2833 823.341 54.7633 822.669 55.0993C822.005 55.4273 821.217 55.5913 820.305 55.5913H817.701V47.2273H820.305ZM820.305 54.6913C821.385 54.6913 822.209 54.4073 822.777 53.8393C823.345 53.2633 823.629 52.4593 823.629 51.4273C823.629 50.3873 823.341 49.5753 822.765 48.9913C822.197 48.4073 821.377 48.1153 820.305 48.1153H818.793V54.6913H820.305ZM832.186 52.0513C832.186 52.2593 832.174 52.4793 832.15 52.7113H826.894C826.934 53.3593 827.154 53.8673 827.554 54.2353C827.962 54.5953 828.454 54.7753 829.03 54.7753C829.502 54.7753 829.894 54.6673 830.206 54.4513C830.526 54.2273 830.75 53.9313 830.878 53.5633H832.054C831.878 54.1953 831.526 54.7113 830.998 55.1113C830.47 55.5033 829.814 55.6993 829.03 55.6993C828.406 55.6993 827.846 55.5593 827.35 55.2793C826.862 54.9993 826.478 54.6033 826.198 54.0913C825.918 53.5713 825.778 52.9713 825.778 52.2913C825.778 51.6113 825.914 51.0153 826.186 50.5033C826.458 49.9913 826.838 49.5993 827.326 49.3273C827.822 49.0473 828.39 48.9073 829.03 48.9073C829.654 48.9073 830.206 49.0433 830.686 49.3153C831.166 49.5873 831.534 49.9633 831.79 50.4433C832.054 50.9153 832.186 51.4513 832.186 52.0513ZM831.058 51.8233C831.058 51.4073 830.966 51.0513 830.782 50.7553C830.598 50.4513 830.346 50.2233 830.026 50.0713C829.714 49.9113 829.366 49.8313 828.982 49.8313C828.43 49.8313 827.958 50.0073 827.566 50.3593C827.182 50.7113 826.962 51.1993 826.906 51.8233H831.058ZM833.219 52.2913C833.219 51.6113 833.355 51.0193 833.627 50.5153C833.899 50.0033 834.275 49.6073 834.755 49.3273C835.243 49.0473 835.799 48.9073 836.423 48.9073C837.231 48.9073 837.895 49.1033 838.415 49.4953C838.943 49.8873 839.291 50.4313 839.459 51.1273H838.283C838.171 50.7273 837.951 50.4113 837.623 50.1793C837.303 49.9473 836.903 49.8313 836.423 49.8313C835.799 49.8313 835.295 50.0473 834.911 50.4793C834.527 50.9033 834.335 51.5073 834.335 52.2913C834.335 53.0833 834.527 53.6953 834.911 54.1273C835.295 54.5593 835.799 54.7753 836.423 54.7753C836.903 54.7753 837.303 54.6633 837.623 54.4393C837.943 54.2153 838.163 53.8953 838.283 53.4793H839.459C839.283 54.1513 838.931 54.6913 838.403 55.0993C837.875 55.4993 837.215 55.6993 836.423 55.6993C835.799 55.6993 835.243 55.5593 834.755 55.2793C834.275 54.9993 833.899 54.6033 833.627 54.0913C833.355 53.5793 833.219 52.9793 833.219 52.2913ZM840.508 52.2793C840.508 51.6073 840.644 51.0193 840.916 50.5153C841.188 50.0033 841.56 49.6073 842.032 49.3273C842.512 49.0473 843.044 48.9073 843.628 48.9073C844.204 48.9073 844.704 49.0313 845.128 49.2793C845.552 49.5273 845.868 49.8393 846.076 50.2153V49.0153H847.18V55.5913H846.076V54.3673C845.86 54.7513 845.536 55.0713 845.104 55.3273C844.68 55.5753 844.184 55.6993 843.616 55.6993C843.032 55.6993 842.504 55.5553 842.032 55.2673C841.56 54.9793 841.188 54.5753 840.916 54.0553C840.644 53.5353 840.508 52.9433 840.508 52.2793ZM846.076 52.2913C846.076 51.7953 845.976 51.3633 845.776 50.9953C845.576 50.6273 845.304 50.3473 844.96 50.1553C844.624 49.9553 844.252 49.8553 843.844 49.8553C843.436 49.8553 843.064 49.9513 842.728 50.1433C842.392 50.3353 842.124 50.6153 841.924 50.9833C841.724 51.3513 841.624 51.7833 841.624 52.2793C841.624 52.7833 841.724 53.2233 841.924 53.5993C842.124 53.9673 842.392 54.2513 842.728 54.4513C843.064 54.6433 843.436 54.7393 843.844 54.7393C844.252 54.7393 844.624 54.6433 844.96 54.4513C845.304 54.2513 845.576 53.9673 845.776 53.5993C845.976 53.2233 846.076 52.7873 846.076 52.2913ZM854.69 49.0153L850.73 58.6873H849.602L850.898 55.5193L848.246 49.0153H849.458L851.522 54.3433L853.562 49.0153H854.69Z" fill="#4B4B4B"/>
<circle cx="284.512" cy="23.5119" r="13.9915" fill="#E2E2E2"/>
<path d="M281.73 25.1795C282.467 24.5649 283.055 24.0541 283.493 23.647C283.93 23.2322 284.295 22.802 284.587 22.3565C284.879 21.9109 285.025 21.4731 285.025 21.0429C285.025 20.6512 284.933 20.3439 284.748 20.1211C284.564 19.8984 284.28 19.787 283.896 19.787C283.512 19.787 283.216 19.9176 283.009 20.1787C282.801 20.4322 282.694 20.7818 282.686 21.2273H281.119C281.15 20.3055 281.422 19.6065 281.937 19.1302C282.459 18.6539 283.12 18.4158 283.919 18.4158C284.795 18.4158 285.467 18.6501 285.935 19.1187C286.404 19.5796 286.638 20.1903 286.638 20.9507C286.638 21.5499 286.477 22.1222 286.154 22.6676C285.832 23.213 285.463 23.6892 285.048 24.0964C284.633 24.4958 284.092 24.9797 283.423 25.5482H286.822V26.8848H281.13V25.6864L281.73 25.1795Z" fill="#4B4B4B"/>
<path d="M238.983 51.4032C238.983 50.5872 239.167 49.8552 239.535 49.2072C239.903 48.5512 240.403 48.0392 241.035 47.6712C241.675 47.3032 242.383 47.1192 243.159 47.1192C244.071 47.1192 244.867 47.3392 245.547 47.7792C246.227 48.2192 246.723 48.8432 247.035 49.6512H245.727C245.495 49.1472 245.159 48.7592 244.719 48.4872C244.287 48.2152 243.767 48.0792 243.159 48.0792C242.575 48.0792 242.051 48.2152 241.587 48.4872C241.123 48.7592 240.759 49.1472 240.495 49.6512C240.231 50.1472 240.099 50.7312 240.099 51.4032C240.099 52.0672 240.231 52.6512 240.495 53.1552C240.759 53.6512 241.123 54.0352 241.587 54.3072C242.051 54.5792 242.575 54.7152 243.159 54.7152C243.767 54.7152 244.287 54.5832 244.719 54.3192C245.159 54.0472 245.495 53.6592 245.727 53.1552H247.035C246.723 53.9552 246.227 54.5752 245.547 55.0152C244.867 55.4472 244.071 55.6632 243.159 55.6632C242.383 55.6632 241.675 55.4832 241.035 55.1232C240.403 54.7552 239.903 54.2472 239.535 53.5992C239.167 52.9512 238.983 52.2192 238.983 51.4032ZM249.752 50.0832C249.944 49.7072 250.216 49.4152 250.568 49.2072C250.928 48.9992 251.364 48.8952 251.876 48.8952V50.0232H251.588C250.364 50.0232 249.752 50.6872 249.752 52.0152V55.5912H248.66V49.0152H249.752V50.0832ZM252.729 52.2792C252.729 51.6072 252.865 51.0192 253.137 50.5152C253.409 50.0032 253.781 49.6072 254.253 49.3272C254.733 49.0472 255.265 48.9072 255.849 48.9072C256.425 48.9072 256.925 49.0312 257.349 49.2792C257.773 49.5272 258.089 49.8392 258.297 50.2152V49.0152H259.401V55.5912H258.297V54.3672C258.081 54.7512 257.757 55.0712 257.325 55.3272C256.901 55.5752 256.405 55.6992 255.837 55.6992C255.253 55.6992 254.725 55.5552 254.253 55.2672C253.781 54.9792 253.409 54.5752 253.137 54.0552C252.865 53.5352 252.729 52.9432 252.729 52.2792ZM258.297 52.2912C258.297 51.7952 258.197 51.3632 257.997 50.9952C257.797 50.6272 257.525 50.3472 257.181 50.1552C256.845 49.9552 256.473 49.8552 256.065 49.8552C255.657 49.8552 255.285 49.9512 254.949 50.1432C254.613 50.3352 254.345 50.6152 254.145 50.9832C253.945 51.3512 253.845 51.7832 253.845 52.2792C253.845 52.7832 253.945 53.2232 254.145 53.5992C254.345 53.9672 254.613 54.2512 254.949 54.4512C255.285 54.6432 255.657 54.7392 256.065 54.7392C256.473 54.7392 256.845 54.6432 257.181 54.4512C257.525 54.2512 257.797 53.9672 257.997 53.5992C258.197 53.2232 258.297 52.7872 258.297 52.2912ZM260.838 52.2912C260.838 51.6112 260.974 51.0192 261.246 50.5152C261.518 50.0032 261.894 49.6072 262.374 49.3272C262.862 49.0472 263.418 48.9072 264.042 48.9072C264.85 48.9072 265.514 49.1032 266.034 49.4952C266.562 49.8872 266.91 50.4312 267.078 51.1272H265.902C265.79 50.7272 265.57 50.4112 265.242 50.1792C264.922 49.9472 264.522 49.8312 264.042 49.8312C263.418 49.8312 262.914 50.0472 262.53 50.4792C262.146 50.9032 261.954 51.5072 261.954 52.2912C261.954 53.0832 262.146 53.6952 262.53 54.1272C262.914 54.5592 263.418 54.7752 264.042 54.7752C264.522 54.7752 264.922 54.6632 265.242 54.4392C265.562 54.2152 265.782 53.8952 265.902 53.4792H267.078C266.902 54.1512 266.55 54.6912 266.022 55.0992C265.494 55.4992 264.834 55.6992 264.042 55.6992C263.418 55.6992 262.862 55.5592 262.374 55.2792C261.894 54.9992 261.518 54.6032 261.246 54.0912C260.974 53.5792 260.838 52.9792 260.838 52.2912ZM272.207 55.5912L269.627 52.6872V55.5912H268.535V46.7112H269.627V51.9312L272.159 49.0152H273.683L270.587 52.2912L273.695 55.5912H272.207ZM277.039 55.6992C276.535 55.6992 276.083 55.6152 275.683 55.4472C275.283 55.2712 274.967 55.0312 274.735 54.7272C274.503 54.4152 274.375 54.0592 274.351 53.6592H275.479C275.511 53.9872 275.663 54.2552 275.935 54.4632C276.215 54.6712 276.579 54.7752 277.027 54.7752C277.443 54.7752 277.771 54.6832 278.011 54.4992C278.251 54.3152 278.371 54.0832 278.371 53.8032C278.371 53.5152 278.243 53.3032 277.987 53.1672C277.731 53.0232 277.335 52.8832 276.799 52.7472C276.311 52.6192 275.911 52.4912 275.599 52.3632C275.295 52.2272 275.031 52.0312 274.807 51.7752C274.591 51.5112 274.483 51.1672 274.483 50.7432C274.483 50.4072 274.583 50.0992 274.783 49.8192C274.983 49.5392 275.267 49.3192 275.635 49.1592C276.003 48.9912 276.423 48.9072 276.895 48.9072C277.623 48.9072 278.211 49.0912 278.659 49.4592C279.107 49.8272 279.347 50.3312 279.379 50.9712H278.287C278.263 50.6272 278.123 50.3512 277.867 50.1432C277.619 49.9352 277.283 49.8312 276.859 49.8312C276.467 49.8312 276.155 49.9152 275.923 50.0832C275.691 50.2512 275.575 50.4712 275.575 50.7432C275.575 50.9592 275.643 51.1392 275.779 51.2832C275.923 51.4192 276.099 51.5312 276.307 51.6192C276.523 51.6992 276.819 51.7912 277.195 51.8952C277.667 52.0232 278.051 52.1512 278.347 52.2792C278.643 52.3992 278.895 52.5832 279.103 52.8312C279.319 53.0792 279.431 53.4032 279.439 53.8032C279.439 54.1632 279.339 54.4872 279.139 54.7752C278.939 55.0632 278.655 55.2912 278.287 55.4592C277.927 55.6192 277.511 55.6992 277.039 55.6992ZM287.048 55.6992C286.432 55.6992 285.872 55.5592 285.368 55.2792C284.872 54.9992 284.48 54.6032 284.192 54.0912C283.912 53.5712 283.772 52.9712 283.772 52.2912C283.772 51.6192 283.916 51.0272 284.204 50.5152C284.5 49.9952 284.9 49.5992 285.404 49.3272C285.908 49.0472 286.472 48.9072 287.096 48.9072C287.72 48.9072 288.284 49.0472 288.788 49.3272C289.292 49.5992 289.688 49.9912 289.976 50.5032C290.272 51.0152 290.42 51.6112 290.42 52.2912C290.42 52.9712 290.268 53.5712 289.964 54.0912C289.668 54.6032 289.264 54.9992 288.752 55.2792C288.24 55.5592 287.672 55.6992 287.048 55.6992ZM287.048 54.7392C287.44 54.7392 287.808 54.6472 288.152 54.4632C288.496 54.2792 288.772 54.0032 288.98 53.6352C289.196 53.2672 289.304 52.8192 289.304 52.2912C289.304 51.7632 289.2 51.3152 288.992 50.9472C288.784 50.5792 288.512 50.3072 288.176 50.1312C287.84 49.9472 287.476 49.8552 287.084 49.8552C286.684 49.8552 286.316 49.9472 285.98 50.1312C285.652 50.3072 285.388 50.5792 285.188 50.9472C284.988 51.3152 284.888 51.7632 284.888 52.2912C284.888 52.8272 284.984 53.2792 285.176 53.6472C285.376 54.0152 285.64 54.2912 285.968 54.4752C286.296 54.6512 286.656 54.7392 287.048 54.7392ZM292.948 50.0832C293.14 49.7072 293.412 49.4152 293.764 49.2072C294.124 48.9992 294.56 48.8952 295.072 48.8952V50.0232H294.784C293.56 50.0232 292.948 50.6872 292.948 52.0152V55.5912H291.856V49.0152H292.948V50.0832ZM301.859 55.6992C301.355 55.6992 300.903 55.6152 300.503 55.4472C300.103 55.2712 299.787 55.0312 299.555 54.7272C299.323 54.4152 299.195 54.0592 299.171 53.6592H300.299C300.331 53.9872 300.483 54.2552 300.755 54.4632C301.035 54.6712 301.399 54.7752 301.847 54.7752C302.263 54.7752 302.591 54.6832 302.831 54.4992C303.071 54.3152 303.191 54.0832 303.191 53.8032C303.191 53.5152 303.063 53.3032 302.807 53.1672C302.551 53.0232 302.155 52.8832 301.619 52.7472C301.131 52.6192 300.731 52.4912 300.419 52.3632C300.115 52.2272 299.851 52.0312 299.627 51.7752C299.411 51.5112 299.303 51.1672 299.303 50.7432C299.303 50.4072 299.403 50.0992 299.603 49.8192C299.803 49.5392 300.087 49.3192 300.455 49.1592C300.823 48.9912 301.243 48.9072 301.715 48.9072C302.443 48.9072 303.031 49.0912 303.479 49.4592C303.927 49.8272 304.167 50.3312 304.199 50.9712H303.107C303.083 50.6272 302.943 50.3512 302.687 50.1432C302.439 49.9352 302.103 49.8312 301.679 49.8312C301.287 49.8312 300.975 49.9152 300.743 50.0832C300.511 50.2512 300.395 50.4712 300.395 50.7432C300.395 50.9592 300.463 51.1392 300.599 51.2832C300.743 51.4192 300.919 51.5312 301.127 51.6192C301.343 51.6992 301.639 51.7912 302.015 51.8952C302.487 52.0232 302.871 52.1512 303.167 52.2792C303.463 52.3992 303.715 52.5832 303.923 52.8312C304.139 53.0792 304.251 53.4032 304.259 53.8032C304.259 54.1632 304.159 54.4872 303.959 54.7752C303.759 55.0632 303.475 55.2912 303.107 55.4592C302.747 55.6192 302.331 55.6992 301.859 55.6992ZM306.893 50.2272C307.109 49.8512 307.429 49.5392 307.853 49.2912C308.285 49.0352 308.785 48.9072 309.353 48.9072C309.937 48.9072 310.465 49.0472 310.937 49.3272C311.417 49.6072 311.793 50.0032 312.065 50.5152C312.337 51.0192 312.473 51.6072 312.473 52.2792C312.473 52.9432 312.337 53.5352 312.065 54.0552C311.793 54.5752 311.417 54.9792 310.937 55.2672C310.465 55.5552 309.937 55.6992 309.353 55.6992C308.793 55.6992 308.297 55.5752 307.865 55.3272C307.441 55.0712 307.117 54.7552 306.893 54.3792V58.7112H305.801V49.0152H306.893V50.2272ZM311.357 52.2792C311.357 51.7832 311.257 51.3512 311.057 50.9832C310.857 50.6152 310.585 50.3352 310.241 50.1432C309.905 49.9512 309.533 49.8552 309.125 49.8552C308.725 49.8552 308.353 49.9552 308.009 50.1552C307.673 50.3472 307.401 50.6312 307.193 51.0072C306.993 51.3752 306.893 51.8032 306.893 52.2912C306.893 52.7872 306.993 53.2232 307.193 53.5992C307.401 53.9672 307.673 54.2512 308.009 54.4512C308.353 54.6432 308.725 54.7392 309.125 54.7392C309.533 54.7392 309.905 54.6432 310.241 54.4512C310.585 54.2512 310.857 53.9672 311.057 53.5992C311.257 53.2232 311.357 52.7832 311.357 52.2792ZM315.002 46.7112V55.5912H313.91V46.7112H315.002ZM317.427 47.9472C317.219 47.9472 317.043 47.8752 316.899 47.7312C316.755 47.5872 316.683 47.4112 316.683 47.2032C316.683 46.9952 316.755 46.8192 316.899 46.6752C317.043 46.5312 317.219 46.4592 317.427 46.4592C317.627 46.4592 317.795 46.5312 317.931 46.6752C318.075 46.8192 318.147 46.9952 318.147 47.2032C318.147 47.4112 318.075 47.5872 317.931 47.7312C317.795 47.8752 317.627 47.9472 317.427 47.9472ZM317.955 49.0152V55.5912H316.863V49.0152H317.955ZM321.149 49.9152V53.7912C321.149 54.1112 321.217 54.3392 321.353 54.4752C321.489 54.6032 321.725 54.6672 322.061 54.6672H322.865V55.5912H321.881C321.273 55.5912 320.817 55.4512 320.513 55.1712C320.209 54.8912 320.057 54.4312 320.057 53.7912V49.9152H319.205V49.0152H320.057V47.3592H321.149V49.0152H322.865V49.9152H321.149ZM326.516 55.6992C326.012 55.6992 325.56 55.6152 325.16 55.4472C324.76 55.2712 324.444 55.0312 324.212 54.7272C323.98 54.4152 323.852 54.0592 323.828 53.6592H324.956C324.988 53.9872 325.14 54.2552 325.412 54.4632C325.692 54.6712 326.056 54.7752 326.504 54.7752C326.92 54.7752 327.248 54.6832 327.488 54.4992C327.728 54.3152 327.848 54.0832 327.848 53.8032C327.848 53.5152 327.72 53.3032 327.464 53.1672C327.208 53.0232 326.812 52.8832 326.276 52.7472C325.788 52.6192 325.388 52.4912 325.076 52.3632C324.772 52.2272 324.508 52.0312 324.284 51.7752C324.068 51.5112 323.96 51.1672 323.96 50.7432C323.96 50.4072 324.06 50.0992 324.26 49.8192C324.46 49.5392 324.744 49.3192 325.112 49.1592C325.48 48.9912 325.9 48.9072 326.372 48.9072C327.1 48.9072 327.688 49.0912 328.136 49.4592C328.584 49.8272 328.824 50.3312 328.856 50.9712H327.764C327.74 50.6272 327.6 50.3512 327.344 50.1432C327.096 49.9352 326.76 49.8312 326.336 49.8312C325.944 49.8312 325.632 49.9152 325.4 50.0832C325.168 50.2512 325.052 50.4712 325.052 50.7432C325.052 50.9592 325.12 51.1392 325.256 51.2832C325.4 51.4192 325.576 51.5312 325.784 51.6192C326 51.6992 326.296 51.7912 326.672 51.8952C327.144 52.0232 327.528 52.1512 327.824 52.2792C328.12 52.3992 328.372 52.5832 328.58 52.8312C328.796 53.0792 328.908 53.4032 328.916 53.8032C328.916 54.1632 328.816 54.4872 328.616 54.7752C328.416 55.0632 328.132 55.2912 327.764 55.4592C327.404 55.6192 326.988 55.6992 326.516 55.6992Z" fill="#4B4B4B"/>
<circle cx="545.512" cy="23.5119" r="13.9915" fill="#E2E2E2"/>
<path d="M541.768 25.4157V24.1482L545.536 18.7558H547.414V24.01H548.428V25.4157H547.414V27.0519H545.801V25.4157H541.768ZM545.905 20.4841L543.543 24.01H545.905V20.4841Z" fill="#4B4B4B"/>
<path d="M529.754 47.6752C529.754 48.3712 529.514 48.9512 529.034 49.4152C528.562 49.8712 527.838 50.0992 526.862 50.0992H525.254V53.5912H524.162V45.2272H526.862C527.806 45.2272 528.522 45.4552 529.01 45.9112C529.506 46.3672 529.754 46.9552 529.754 47.6752ZM526.862 49.1992C527.47 49.1992 527.918 49.0672 528.206 48.8032C528.494 48.5392 528.638 48.1632 528.638 47.6752C528.638 46.6432 528.046 46.1272 526.862 46.1272H525.254V49.1992H526.862ZM537.112 50.0512C537.112 50.2592 537.1 50.4792 537.076 50.7112H531.82C531.86 51.3592 532.08 51.8672 532.48 52.2352C532.888 52.5952 533.38 52.7752 533.956 52.7752C534.428 52.7752 534.82 52.6672 535.132 52.4512C535.452 52.2272 535.676 51.9312 535.804 51.5632H536.98C536.804 52.1952 536.452 52.7112 535.924 53.1112C535.396 53.5032 534.74 53.6992 533.956 53.6992C533.332 53.6992 532.772 53.5592 532.276 53.2792C531.788 52.9992 531.404 52.6032 531.124 52.0912C530.844 51.5712 530.704 50.9712 530.704 50.2912C530.704 49.6112 530.84 49.0152 531.112 48.5032C531.384 47.9912 531.764 47.5992 532.252 47.3272C532.748 47.0472 533.316 46.9072 533.956 46.9072C534.58 46.9072 535.132 47.0432 535.612 47.3152C536.092 47.5872 536.46 47.9632 536.716 48.4432C536.98 48.9152 537.112 49.4512 537.112 50.0512ZM535.984 49.8232C535.984 49.4072 535.892 49.0512 535.708 48.7552C535.524 48.4512 535.272 48.2232 534.952 48.0712C534.64 47.9112 534.292 47.8312 533.908 47.8312C533.356 47.8312 532.884 48.0072 532.492 48.3592C532.108 48.7112 531.888 49.1992 531.832 49.8232H535.984ZM544.553 50.0512C544.553 50.2592 544.541 50.4792 544.517 50.7112H539.261C539.301 51.3592 539.521 51.8672 539.921 52.2352C540.329 52.5952 540.821 52.7752 541.397 52.7752C541.869 52.7752 542.261 52.6672 542.573 52.4512C542.893 52.2272 543.117 51.9312 543.245 51.5632H544.421C544.245 52.1952 543.893 52.7112 543.365 53.1112C542.837 53.5032 542.181 53.6992 541.397 53.6992C540.773 53.6992 540.213 53.5592 539.717 53.2792C539.229 52.9992 538.845 52.6032 538.565 52.0912C538.285 51.5712 538.145 50.9712 538.145 50.2912C538.145 49.6112 538.281 49.0152 538.553 48.5032C538.825 47.9912 539.205 47.5992 539.693 47.3272C540.189 47.0472 540.757 46.9072 541.397 46.9072C542.021 46.9072 542.573 47.0432 543.053 47.3152C543.533 47.5872 543.901 47.9632 544.157 48.4432C544.421 48.9152 544.553 49.4512 544.553 50.0512ZM543.425 49.8232C543.425 49.4072 543.333 49.0512 543.149 48.7552C542.965 48.4512 542.713 48.2232 542.393 48.0712C542.081 47.9112 541.733 47.8312 541.349 47.8312C540.797 47.8312 540.325 48.0072 539.933 48.3592C539.549 48.7112 539.329 49.1992 539.273 49.8232H543.425ZM547.086 44.7112V53.5912H545.994V44.7112H547.086ZM549.511 45.9472C549.303 45.9472 549.127 45.8752 548.983 45.7312C548.839 45.5872 548.767 45.4112 548.767 45.2032C548.767 44.9952 548.839 44.8192 548.983 44.6752C549.127 44.5312 549.303 44.4592 549.511 44.4592C549.711 44.4592 549.879 44.5312 550.015 44.6752C550.159 44.8192 550.231 44.9952 550.231 45.2032C550.231 45.4112 550.159 45.5872 550.015 45.7312C549.879 45.8752 549.711 45.9472 549.511 45.9472ZM550.039 47.0152V53.5912H548.947V47.0152H550.039ZM555.105 46.8952C555.905 46.8952 556.553 47.1392 557.049 47.6272C557.545 48.1072 557.793 48.8032 557.793 49.7152V53.5912H556.713V49.8712C556.713 49.2152 556.549 48.7152 556.221 48.3712C555.893 48.0192 555.445 47.8432 554.877 47.8432C554.301 47.8432 553.841 48.0232 553.497 48.3832C553.161 48.7432 552.993 49.2672 552.993 49.9552V53.5912H551.901V47.0152H552.993V47.9512C553.209 47.6152 553.501 47.3552 553.869 47.1712C554.245 46.9872 554.657 46.8952 555.105 46.8952ZM562.288 46.9072C562.856 46.9072 563.352 47.0312 563.776 47.2792C564.208 47.5272 564.528 47.8392 564.736 48.2152V47.0152H565.84V53.7352C565.84 54.3352 565.712 54.8672 565.456 55.3312C565.2 55.8032 564.832 56.1712 564.352 56.4352C563.88 56.6992 563.328 56.8312 562.696 56.8312C561.832 56.8312 561.112 56.6272 560.536 56.2192C559.96 55.8112 559.62 55.2552 559.516 54.5512H560.596C560.716 54.9512 560.964 55.2712 561.34 55.5112C561.716 55.7592 562.168 55.8832 562.696 55.8832C563.296 55.8832 563.784 55.6952 564.16 55.3192C564.544 54.9432 564.736 54.4152 564.736 53.7352V52.3552C564.52 52.7392 564.2 53.0592 563.776 53.3152C563.352 53.5712 562.856 53.6992 562.288 53.6992C561.704 53.6992 561.172 53.5552 560.692 53.2672C560.22 52.9792 559.848 52.5752 559.576 52.0552C559.304 51.5352 559.168 50.9432 559.168 50.2792C559.168 49.6072 559.304 49.0192 559.576 48.5152C559.848 48.0032 560.22 47.6072 560.692 47.3272C561.172 47.0472 561.704 46.9072 562.288 46.9072ZM564.736 50.2912C564.736 49.7952 564.636 49.3632 564.436 48.9952C564.236 48.6272 563.964 48.3472 563.62 48.1552C563.284 47.9552 562.912 47.8552 562.504 47.8552C562.096 47.8552 561.724 47.9512 561.388 48.1432C561.052 48.3352 560.784 48.6152 560.584 48.9832C560.384 49.3512 560.284 49.7832 560.284 50.2792C560.284 50.7832 560.384 51.2232 560.584 51.5992C560.784 51.9672 561.052 52.2512 561.388 52.4512C561.724 52.6432 562.096 52.7392 562.504 52.7392C562.912 52.7392 563.284 52.6432 563.62 52.4512C563.964 52.2512 564.236 51.9672 564.436 51.5992C564.636 51.2232 564.736 50.7872 564.736 50.2912Z" fill="#4B4B4B"/>
<g clip-path="url(#clip1_1_1213)">
<path d="M1071.92 7.84044C1061.68 7.84044 1053.37 16.265 1053.37 26.6573C1053.37 37.0495 1061.68 45.4744 1071.92 45.4744C1082.17 45.4744 1090.47 37.0495 1090.47 26.6573C1090.46 16.2698 1082.16 7.85215 1071.92 7.84044V7.84044ZM1071.92 43.5925C1062.7 43.5925 1055.23 36.0104 1055.23 26.6573C1055.23 17.3041 1062.7 9.72202 1071.92 9.72202C1081.14 9.72202 1088.62 17.3041 1088.62 26.6573C1088.61 36.0059 1081.14 43.5818 1071.92 43.5925Z" fill="#FF783E"/>
<path d="M1066.5 26.6574H1077.34M1077.34 26.6574L1071.92 21.2357M1077.34 26.6574L1071.92 32.079" stroke="#FF783E" stroke-width="1.56808" stroke-linecap="round" stroke-linejoin="round"/>
</g>
<defs>
<clipPath id="clip0_1_1213">
<rect width="37.1038" height="37.6338" fill="white" transform="matrix(-1 0 0 -1 44.9441 45.4742)"/>
</clipPath>
<clipPath id="clip1_1_1213">
<rect width="37.1038" height="37.6338" fill="white" transform="translate(1053.37 7.84044)"/>
</clipPath>
</defs>
</svg>
